<svg width="24" height="24" viewBox="0 0 24 24" fill="none" xmlns="http://www.w3.org/2000/svg">
  <path fill-rule="evenodd" clip-rule="evenodd" d="M22.7071 13.2929C23.0976 13.6834 23.0976 14.3166 22.7071 14.7071L18.7071 18.7071C18.3166 19.0976 17.6834 19.0976 17.2929 18.7071L15.2929 16.7071C14.9024 16.3166 14.9024 15.6834 15.2929 15.2929C15.6834 14.9024 16.3166 14.9024 16.7071 15.2929L18 16.5858L21.2929 13.2929C21.6834 12.9024 22.3166 12.9024 22.7071 13.2929Z" fill="currentColor"/>
  <path fill-rule="evenodd" clip-rule="evenodd" d="M10.5021 1.40273C10.9577 1.14023 11.4742 1.00204 12 1.00204C12.5258 1.00204 13.0424 1.14024 13.4979 1.40276C13.4986 1.40317 13.4993 1.40357 13.5 1.40397L20.5 5.40396C20.9556 5.66701 21.334 6.04524 21.5973 6.50071C21.8606 6.95618 21.9995 7.47288 22 7.99897V9.99999C22 10.5523 21.5523 11 21 11C20.4477 11 20 10.5523 20 9.99999V8.00102C19.9998 7.82566 19.9535 7.65342 19.8658 7.5016C19.7783 7.35031 19.6527 7.22458 19.5016 7.13694C19.5011 7.13663 19.5005 7.13632 19.5 7.13602L12.5 3.13603C12.348 3.04826 12.1755 3.00204 12 3.00204C11.8245 3.00204 11.652 3.04825 11.5 3.13602L11.4961 3.13825L4.5 7.13602C4.49947 7.13632 4.49895 7.13663 4.49842 7.13693C4.34726 7.22457 4.22169 7.3503 4.13423 7.5016C4.04654 7.6533 4.00025 7.82537 4 8.00059V15.9994C4.00025 16.1746 4.04654 16.3467 4.13423 16.4984C4.22169 16.6497 4.34726 16.7754 4.49842 16.8631C4.49895 16.8634 4.49947 16.8637 4.5 16.864L11.5 20.864C11.652 20.9517 11.8245 20.9979 12 20.9979C12.1755 20.9979 12.348 20.9517 12.5 20.864L12.5048 20.8612L14.5048 19.7212C14.9846 19.4477 15.5953 19.615 15.8688 20.0948C16.1423 20.5746 15.975 21.1853 15.4952 21.4588L13.5 22.596C13.4991 22.5965 13.4982 22.5971 13.4973 22.5976C13.0419 22.8599 12.5256 22.9979 12 22.9979C11.4741 22.9979 10.9575 22.8597 10.5019 22.5971C10.5012 22.5967 10.5006 22.5964 10.5 22.596L3.50386 18.5982L3.5 18.596C3.04439 18.333 2.66597 17.9547 2.40269 17.4993C2.13941 17.0438 2.00054 16.5271 2 16.001V7.99897C2.00054 7.47288 2.13941 6.95618 2.40269 6.50071C2.66597 6.04524 3.04439 5.66701 3.5 5.40397L3.50386 5.40174L10.5021 1.40273Z" fill="currentColor"/>
  <path fill-rule="evenodd" clip-rule="evenodd" d="M2.42274 6.50215C2.6977 6.02317 3.30888 5.85778 3.78785 6.13274L12 10.8469L20.2121 6.13274C20.6911 5.85778 21.3023 6.02317 21.5773 6.50215C21.8522 6.98112 21.6868 7.59231 21.2079 7.86726L12.4979 12.8673C12.1895 13.0442 11.8105 13.0442 11.5021 12.8673L2.79215 7.86726C2.31317 7.59231 2.14778 6.98112 2.42274 6.50215Z" fill="currentColor"/>
  <path fill-rule="evenodd" clip-rule="evenodd" d="M12 11C12.5523 11 13 11.4477 13 12V22C13 22.5523 12.5523 23 12 23C11.4477 23 11 22.5523 11 22V12C11 11.4477 11.4477 11 12 11Z" fill="currentColor"/>
  </svg>
