<svg width="20" height="20" viewBox="0 0 20 20" fill="none" xmlns="http://www.w3.org/2000/svg">
<path fill-rule="evenodd" clip-rule="evenodd" d="M2.5013 1.66666C2.96154 1.66666 3.33464 2.03975 3.33464 2.49999V16.6667H17.5013C17.9615 16.6667 18.3346 17.0398 18.3346 17.5C18.3346 17.9602 17.9615 18.3333 17.5013 18.3333H2.5013C2.04106 18.3333 1.66797 17.9602 1.66797 17.5V2.49999C1.66797 2.03975 2.04106 1.66666 2.5013 1.66666Z" fill="currentColor"/>
<path fill-rule="evenodd" clip-rule="evenodd" d="M15.0013 6.66666C15.4615 6.66666 15.8346 7.03975 15.8346 7.49999V14.1667C15.8346 14.6269 15.4615 15 15.0013 15C14.5411 15 14.168 14.6269 14.168 14.1667V7.49999C14.168 7.03975 14.5411 6.66666 15.0013 6.66666Z" fill="currentColor"/>
<path fill-rule="evenodd" clip-rule="evenodd" d="M10.8333 3.33334C11.2936 3.33334 11.6667 3.70644 11.6667 4.16668V14.1667C11.6667 14.6269 11.2936 15 10.8333 15C10.3731 15 10 14.6269 10 14.1667V4.16668C10 3.70644 10.3731 3.33334 10.8333 3.33334Z" fill="currentColor"/>
<path fill-rule="evenodd" clip-rule="evenodd" d="M6.66536 10.8333C7.1256 10.8333 7.4987 11.2064 7.4987 11.6667V14.1667C7.4987 14.6269 7.1256 15 6.66536 15C6.20513 15 5.83203 14.6269 5.83203 14.1667V11.6667C5.83203 11.2064 6.20513 10.8333 6.66536 10.8333Z" fill="currentColor"/>
</svg>
