<svg width="20" height="20" viewBox="0 0 20 20" fill="none" xmlns="http://www.w3.org/2000/svg">
<path fill-rule="evenodd" clip-rule="evenodd" d="M3.33464 4.16662L3.33464 4.16667L3.33464 4.16672C3.33463 4.16746 3.33462 4.17101 3.33718 4.17941C3.34001 4.1887 3.34699 4.20704 3.36386 4.23453C3.39924 4.29215 3.47137 4.37878 3.6065 4.48527C3.88165 4.70211 4.33144 4.93384 4.96152 5.14387C6.21299 5.56102 7.99488 5.83334 10.0013 5.83334C12.0077 5.83334 13.7896 5.56102 15.0411 5.14387C15.6712 4.93384 16.121 4.70211 16.3961 4.48527C16.5312 4.37878 16.6034 4.29215 16.6387 4.23453C16.6556 4.20704 16.6626 4.1887 16.6654 4.17941C16.668 4.17101 16.668 4.16746 16.668 4.16672V4.16667C16.668 4.16606 16.6681 4.16255 16.6654 4.15393C16.6626 4.14464 16.6556 4.12629 16.6387 4.09881C16.6034 4.04119 16.5312 3.95456 16.3961 3.84807C16.121 3.63122 15.6712 3.3995 15.0411 3.18947C13.7896 2.77232 12.0077 2.5 10.0013 2.5C7.99488 2.5 6.21299 2.77232 4.96152 3.18947C4.33144 3.3995 3.88165 3.63122 3.6065 3.84807C3.47137 3.95456 3.39924 4.04119 3.36386 4.09881C3.34699 4.12629 3.34001 4.14464 3.33718 4.15393C3.33462 4.16233 3.33463 4.16587 3.33464 4.16662ZM4.43448 1.60833C5.89748 1.12067 7.86559 0.833336 10.0013 0.833336C12.137 0.833336 14.1051 1.12067 15.5681 1.60833C16.2953 1.85071 16.9438 2.1577 17.4277 2.53905C17.9022 2.91299 18.3346 3.45671 18.3346 4.16667C18.3346 4.87662 17.9022 5.42035 17.4277 5.79429C16.9438 6.17564 16.2953 6.48262 15.5681 6.72501C14.1051 7.21267 12.137 7.5 10.0013 7.5C7.86559 7.5 5.89748 7.21267 4.43448 6.72501C3.70733 6.48262 3.05877 6.17564 2.57488 5.79429C2.10038 5.42035 1.66797 4.87662 1.66797 4.16667C1.66797 3.45671 2.10038 2.91299 2.57488 2.53905C3.05877 2.1577 3.70733 1.85071 4.43448 1.60833Z" fill="currentColor"/>
<path fill-rule="evenodd" clip-rule="evenodd" d="M2.50346 9.16667C2.96369 9.16786 3.33582 9.54192 3.33464 10.0022L3.33464 10.0022L3.33464 10.0022L3.33467 10.0026L3.33513 10.0053C3.33573 10.0082 3.33739 10.0149 3.34191 10.0257C3.35112 10.0478 3.37279 10.0882 3.42115 10.1449C3.52178 10.263 3.70891 10.4173 4.02065 10.585C4.64561 10.9212 5.60034 11.2205 6.80394 11.4195C7.25801 11.4946 7.56523 11.9236 7.49014 12.3776C7.41504 12.8317 6.98607 13.1389 6.532 13.0638C5.23115 12.8487 4.07852 12.5087 3.23101 12.0527C2.4426 11.6286 1.6655 10.9581 1.66797 9.99785C1.66916 9.53762 2.04322 9.16548 2.50346 9.16667Z" fill="currentColor"/>
<path fill-rule="evenodd" clip-rule="evenodd" d="M17.5013 3.33333C17.9615 3.33333 18.3346 3.70643 18.3346 4.16667V7.75C18.3346 8.21024 17.9615 8.58333 17.5013 8.58333C17.0411 8.58333 16.668 8.21024 16.668 7.75V4.16667C16.668 3.70643 17.0411 3.33333 17.5013 3.33333Z" fill="currentColor"/>
<path fill-rule="evenodd" clip-rule="evenodd" d="M2.5013 3.33333C2.96154 3.33333 3.33464 3.70643 3.33464 4.16667V15.8333L3.33464 15.8342C3.33471 15.8348 3.33497 15.8368 3.33554 15.8392C3.33665 15.8438 3.33963 15.8539 3.34742 15.8699C3.36352 15.9029 3.39946 15.9593 3.47469 16.0347C3.63001 16.1903 3.90523 16.3792 4.33685 16.5713C5.19848 16.9549 6.4689 17.257 7.97395 17.4039C8.43201 17.4487 8.76708 17.8563 8.72236 18.3143C8.67763 18.7724 8.27005 19.1074 7.81199 19.0627C6.20441 18.9058 4.74158 18.5758 3.65908 18.094C3.11865 17.8534 2.64527 17.5629 2.29514 17.2122C1.94246 16.8589 1.66758 16.3926 1.66797 15.833C1.66797 15.8332 1.66797 15.8328 1.66797 15.833V4.16667C1.66797 3.70643 2.04107 3.33333 2.5013 3.33333Z" fill="currentColor"/>
<path fill-rule="evenodd" clip-rule="evenodd" d="M10.0013 9.16667C10.4615 9.16667 10.8346 9.53976 10.8346 10V12.5H13.3346C13.7949 12.5 14.168 12.8731 14.168 13.3333C14.168 13.7936 13.7949 14.1667 13.3346 14.1667H10.0013C9.54106 14.1667 9.16797 13.7936 9.16797 13.3333V10C9.16797 9.53976 9.54106 9.16667 10.0013 9.16667Z" fill="currentColor"/>
<path fill-rule="evenodd" clip-rule="evenodd" d="M11.1537 11.0024C12.0293 10.1269 13.2473 9.58333 14.5846 9.58333C15.8002 9.58333 16.966 10.0662 17.8255 10.9258C18.6851 11.7853 19.168 12.9511 19.168 14.1667C19.168 15.2161 18.8378 16.2389 18.2242 17.0902C17.6106 17.9415 16.7447 18.5782 15.7491 18.9101C14.7535 19.2419 13.6788 19.2521 12.6771 18.9392C11.6755 18.6263 10.7976 18.0062 10.168 17.1667C9.89183 16.7985 9.96645 16.2761 10.3346 16C10.7028 15.7239 11.2252 15.7985 11.5013 16.1667C11.9211 16.7264 12.5063 17.1398 13.1741 17.3484C13.8419 17.557 14.5584 17.5502 15.2221 17.3289C15.8858 17.1077 16.463 16.6833 16.8721 16.1157C17.2812 15.5481 17.5013 14.8663 17.5013 14.1667C17.5013 13.3931 17.194 12.6513 16.647 12.1043C16.1 11.5573 15.3582 11.25 14.5846 11.25C13.7053 11.25 12.9067 11.6065 12.3322 12.1809L10.5906 13.9226C10.2651 14.248 9.73748 14.248 9.41205 13.9226C9.08661 13.5972 9.08661 13.0695 9.41205 12.7441L11.1537 11.0024Z" fill="currentColor"/>
</svg>
