<svg width="24" height="24" viewBox="0 0 24 24" fill="none" xmlns="http://www.w3.org/2000/svg">
  <path fill-rule="evenodd" clip-rule="evenodd" d="M17.6088 6.39179C17.8259 6.60887 17.8927 6.93444 17.7786 7.21947L14.8844 14.455C14.7887 14.6945 14.5789 14.8699 14.3263 14.9217C14.0735 14.9736 13.8117 14.895 13.6292 14.7126L9.28794 10.3713C9.10552 10.1889 9.02697 9.92705 9.07883 9.67436C9.1307 9.42166 9.30606 9.21192 9.54558 9.11611L16.7811 6.2219C17.0661 6.10789 17.3917 6.17471 17.6088 6.39179ZM11.1962 10.109L13.8916 12.8043L15.6885 8.31206L11.1962 10.109Z" fill="currentColor" />
  <path fill-rule="evenodd" clip-rule="evenodd" d="M9.67561 9.07819C9.92831 9.02632 10.1902 9.10487 10.3726 9.28729L14.7139 13.6286C14.8963 13.8111 14.9749 14.0729 14.923 14.3255C14.8711 14.5783 14.6958 14.788 14.4562 14.8838L7.22073 17.778C6.93569 17.892 6.61012 17.8252 6.39305 17.6082C6.17597 17.391 6.10914 17.0655 6.22316 16.7804L9.11737 9.54494C9.21318 9.30541 9.42291 9.13006 9.67561 9.07819ZM10.1102 11.1956L8.31331 15.6879L12.8056 13.891L10.1102 11.1956Z" fill="currentColor" />
  <path fill-rule="evenodd" clip-rule="evenodd" d="M12 2.53488C6.77257 2.53488 2.53489 6.77256 2.53489 12C2.53489 17.2274 6.77257 21.4651 12 21.4651C14.1321 21.4651 16.0975 20.7611 17.6796 19.5725C18.0185 19.3179 18.4995 19.3862 18.7541 19.7251C19.0087 20.064 18.9404 20.545 18.6015 20.7996C16.7628 22.1811 14.476 23 12 23C5.92487 23 1 18.0752 1 12C1 5.92487 5.92487 1 12 1C18.0752 1 23 5.92487 23 12C23 13.563 22.6736 15.0519 22.0844 16.4003C21.9147 16.7887 21.4622 16.966 21.0739 16.7963C20.6855 16.6265 20.5082 16.1742 20.6779 15.7857C21.184 14.6274 21.4651 13.3475 21.4651 12C21.4651 6.77256 17.2275 2.53488 12 2.53488Z" fill="currentColor" />
</svg>
