<svg width="24" height="24" viewBox="0 0 24 24" fill="none" xmlns="http://www.w3.org/2000/svg">
<path fill-rule="evenodd" clip-rule="evenodd" d="M12.5307 1.96967C12.2378 1.67678 11.763 1.67678 11.4701 1.96967L8.12006 5.31967C7.82717 5.61256 7.82717 6.08744 8.12006 6.38033C8.41295 6.67322 8.88783 6.67322 9.18072 6.38033L11.2505 4.31056V15C11.2505 15.4142 11.5863 15.75 12.0005 15.75C12.4147 15.75 12.7505 15.4142 12.7505 15V4.31076L14.8201 6.38033C15.113 6.67322 15.5878 6.67322 15.8807 6.38033C16.1736 6.08744 16.1736 5.61256 15.8807 5.31967L12.5307 1.96967ZM15.6932 8.83568C15.7288 8.42299 16.0921 8.11725 16.5048 8.15279C18.4168 8.31743 19.9142 8.90537 20.9079 10.13C21.8847 11.3338 22.2605 13.0163 22.2605 15.11V15.24C22.2605 17.5492 21.8027 19.361 20.587 20.5766C19.3714 21.7922 17.5596 22.25 15.2505 22.25H8.74047C6.43129 22.25 4.61952 21.7922 3.40389 20.5766C2.18826 19.361 1.73047 17.5492 1.73047 15.24V15.11C1.73047 13.0316 2.10117 11.3592 3.06232 10.1578C4.0408 8.93465 5.5164 8.33893 7.40086 8.16326C7.81328 8.12482 8.17878 8.42799 8.21723 8.84041C8.25568 9.25284 7.95251 9.61834 7.54008 9.65679C5.88454 9.81112 4.86514 10.3054 4.23362 11.0948C3.58476 11.9059 3.23047 13.1685 3.23047 15.11V15.24C3.23047 17.4008 3.66768 18.7191 4.46455 19.5159C5.26142 20.3128 6.57964 20.75 8.74047 20.75H15.2505C17.4113 20.75 18.7295 20.3128 19.5264 19.5159C20.3233 18.7191 20.7605 17.4008 20.7605 15.24V15.11C20.7605 13.1537 20.4012 11.8862 19.7431 11.0751C19.1017 10.2847 18.0642 9.79262 16.3761 9.64726C15.9634 9.61172 15.6577 9.24837 15.6932 8.83568Z" fill="currentColor"/>
</svg>
