<svg width="24" height="24" viewBox="0 0 24 24" fill="none" xmlns="http://www.w3.org/2000/svg">
<path fill-rule="evenodd" clip-rule="evenodd" d="M5.25 3C4.00736 3 3 4.00736 3 5.25C3 6.49264 4.00736 7.5 5.25 7.5C6.49264 7.5 7.5 6.49264 7.5 5.25C7.5 4.00736 6.49264 3 5.25 3ZM1.5 5.25C1.5 3.17894 3.17894 1.5 5.25 1.5C7.32106 1.5 9 3.17894 9 5.25C9 7.06377 7.71233 8.57678 6.00128 8.9247C6.00352 9.29437 6.00971 9.58995 6.0268 9.84045C6.05275 10.2206 6.10125 10.442 6.17127 10.6111C6.39963 11.1623 6.83765 11.6004 7.38896 11.8287C7.55797 11.8988 7.77938 11.9473 8.15955 11.9732C8.54648 11.9996 9.0408 12 9.75 12H12H14.25C14.9592 12 15.4535 11.9996 15.8405 11.9732C16.2206 11.9473 16.442 11.8988 16.6111 11.8287C17.1623 11.6004 17.6004 11.1623 17.8287 10.6111C17.8988 10.442 17.9473 10.2206 17.9732 9.84045C17.9902 9.58995 17.9965 9.29437 17.9987 8.9247C16.2877 8.57678 15 7.06377 15 5.25C15 3.17894 16.679 1.5 18.75 1.5C20.8211 1.5 22.5 3.17894 22.5 5.25C22.5 7.06464 21.2111 8.57828 19.4988 8.92523C19.4965 9.31388 19.4897 9.65025 19.4697 9.94252C19.4386 10.399 19.3729 10.8028 19.2146 11.1851C18.8339 12.1039 18.104 12.8339 17.1851 13.2146C16.8028 13.3729 16.3991 13.4386 15.9425 13.4697C15.4985 13.5 14.953 13.5 14.2766 13.5H12.75V15C12.75 15.0251 12.7488 15.0499 12.7464 15.0743C14.4598 15.4203 15.75 16.9345 15.75 18.75C15.75 20.8211 14.071 22.5 12 22.5C9.92895 22.5 8.25 20.8211 8.25 18.75C8.25 16.9345 9.54015 15.4203 11.2536 15.0743C11.2512 15.0499 11.25 15.0251 11.25 15V13.5H9.72338C9.04703 13.5 8.50148 13.5 8.05748 13.4697C7.60095 13.4386 7.19721 13.3729 6.81494 13.2146C5.89608 12.8339 5.16605 12.1039 4.78545 11.1851C4.62711 10.8028 4.56143 10.399 4.53028 9.94252C4.51034 9.65025 4.50353 9.31388 4.50121 8.92523C2.78893 8.57828 1.5 7.06464 1.5 5.25ZM12 16.5C10.7573 16.5 9.75 17.5073 9.75 18.75C9.75 19.9927 10.7573 21 12 21C13.2427 21 14.25 19.9927 14.25 18.75C14.25 17.5073 13.2427 16.5 12 16.5ZM16.5 5.25C16.5 4.00736 17.5073 3 18.75 3C19.9927 3 21 4.00736 21 5.25C21 6.49264 19.9927 7.5 18.75 7.5C17.5073 7.5 16.5 6.49264 16.5 5.25Z" fill="currentColor"/>
</svg>
