<svg width="16" height="16" viewBox="0 0 16 16" fill="none" xmlns="http://www.w3.org/2000/svg">
<path fill-rule="evenodd" clip-rule="evenodd" d="M3.33334 4.66668C3.15653 4.66668 2.98696 4.73691 2.86194 4.86194C2.73691 4.98696 2.66668 5.15653 2.66668 5.33334V12.6667C2.66668 12.8435 2.73691 13.0131 2.86194 13.1381C2.98696 13.2631 3.15653 13.3333 3.33334 13.3333H10.6667C10.8435 13.3333 11.0131 13.2631 11.1381 13.1381C11.2631 13.0131 11.3333 12.8435 11.3333 12.6667V8.66668C11.3333 8.29849 11.6318 8.00001 12 8.00001C12.3682 8.00001 12.6667 8.29849 12.6667 8.66668V12.6667C12.6667 13.1971 12.456 13.7058 12.0809 14.0809C11.7058 14.456 11.1971 14.6667 10.6667 14.6667H3.33334C2.80291 14.6667 2.2942 14.456 1.91913 14.0809C1.54406 13.7058 1.33334 13.1971 1.33334 12.6667V5.33334C1.33334 4.80291 1.54406 4.2942 1.91913 3.91913C2.2942 3.54406 2.80291 3.33334 3.33334 3.33334H7.33334C7.70153 3.33334 8.00001 3.63182 8.00001 4.00001C8.00001 4.3682 7.70153 4.66668 7.33334 4.66668H3.33334Z" fill="currentColor"/>
<path fill-rule="evenodd" clip-rule="evenodd" d="M9.33334 2.00001C9.33334 1.63182 9.63182 1.33334 10 1.33334H14C14.3682 1.33334 14.6667 1.63182 14.6667 2.00001V6.00001C14.6667 6.3682 14.3682 6.66668 14 6.66668C13.6318 6.66668 13.3333 6.3682 13.3333 6.00001V2.66668H10C9.63182 2.66668 9.33334 2.3682 9.33334 2.00001Z" fill="currentColor"/>
<path fill-rule="evenodd" clip-rule="evenodd" d="M14.4714 1.52861C14.7318 1.78896 14.7318 2.21107 14.4714 2.47141L7.13807 9.80475C6.87772 10.0651 6.45561 10.0651 6.19526 9.80475C5.93491 9.5444 5.93491 9.12229 6.19526 8.86194L13.5286 1.52861C13.7889 1.26826 14.2111 1.26826 14.4714 1.52861Z" fill="currentColor"/>
</svg>
