<svg width="24" height="24" viewBox="0 0 24 24" fill="none" xmlns="http://www.w3.org/2000/svg">
  <path d="M19.4767 2.0865H4.52325C3.7276 2.0865 2.96454 2.40257 2.40193 2.96518C1.83932 3.52779 1.52325 4.29085 1.52325 5.0865V14.6025C1.52325 15.3982 1.83932 16.1612 2.40193 16.7238C2.96454 17.2864 3.7276 17.6025 4.52325 17.6025H9.327V20.4135H7.8585C7.65959 20.4135 7.46882 20.4925 7.32817 20.6332C7.18752 20.7738 7.1085 20.9646 7.1085 21.1635C7.1085 21.3624 7.18752 21.5532 7.32817 21.6938C7.46882 21.8345 7.65959 21.9135 7.8585 21.9135H16.1415C16.3404 21.9135 16.5312 21.8345 16.6718 21.6938C16.8125 21.5532 16.8915 21.3624 16.8915 21.1635C16.8915 20.9646 16.8125 20.7738 16.6718 20.6332C16.5312 20.4925 16.3404 20.4135 16.1415 20.4135H14.673V17.6025H19.4767C20.2724 17.6025 21.0355 17.2864 21.5981 16.7238C22.1607 16.1612 22.4767 15.3982 22.4767 14.6025V5.0865C22.4767 4.29085 22.1607 3.52779 21.5981 2.96518C21.0355 2.40257 20.2724 2.0865 19.4767 2.0865ZM13.173 20.4135H10.827V17.6025H13.173V20.4135ZM20.9767 14.6025C20.9767 15.0003 20.8187 15.3819 20.5374 15.6632C20.2561 15.9445 19.8746 16.1025 19.4767 16.1025H4.52325C4.12543 16.1025 3.74389 15.9445 3.46259 15.6632C3.18129 15.3819 3.02325 15.0003 3.02325 14.6025V5.0865C3.02325 4.68868 3.18129 4.30715 3.46259 4.02584C3.74389 3.74454 4.12543 3.5865 4.52325 3.5865H19.4767C19.8746 3.5865 20.2561 3.74454 20.5374 4.02584C20.8187 4.30715 20.9767 4.68868 20.9767 5.0865V14.6025Z" fill="currentColor"/>
</svg>
