<svg width="96" height="96" viewBox="0 0 96 96" fill="none" xmlns="http://www.w3.org/2000/svg">
<path d="M77.9068 8.34601H18.0928C14.9102 8.34601 11.8579 9.61029 9.60749 11.8607C7.35706 14.1112 6.09277 17.1634 6.09277 20.346V58.41C6.09277 61.5926 7.35706 64.6449 9.60749 66.8953C11.8579 69.1457 14.9102 70.41 18.0928 70.41H37.3078V81.654H31.4338C30.6381 81.654 29.8751 81.9701 29.3125 82.5327C28.7498 83.0953 28.4338 83.8584 28.4338 84.654C28.4338 85.4497 28.7498 86.2127 29.3125 86.7753C29.8751 87.3379 30.6381 87.654 31.4338 87.654H64.5658C65.3614 87.654 66.1245 87.3379 66.6871 86.7753C67.2497 86.2127 67.5658 85.4497 67.5658 84.654C67.5658 83.8584 67.2497 83.0953 66.6871 82.5327C66.1245 81.9701 65.3614 81.654 64.5658 81.654H58.6918V70.41H77.9068C81.0894 70.41 84.1416 69.1457 86.392 66.8953C88.6425 64.6449 89.9068 61.5926 89.9068 58.41V20.346C89.9068 17.1634 88.6425 14.1112 86.392 11.8607C84.1416 9.61029 81.0894 8.34601 77.9068 8.34601ZM52.6918 81.654H43.3078V70.41H52.6918V81.654ZM83.9068 58.41C83.9068 60.0013 83.2746 61.5274 82.1494 62.6527C81.0242 63.7779 79.4981 64.41 77.9068 64.41H18.0928C16.5015 64.41 14.9754 63.7779 13.8501 62.6527C12.7249 61.5274 12.0928 60.0013 12.0928 58.41V20.346C12.0928 18.7547 12.7249 17.2286 13.8501 16.1034C14.9754 14.9781 16.5015 14.346 18.0928 14.346H77.9068C79.4981 14.346 81.0242 14.9781 82.1494 16.1034C83.2746 17.2286 83.9068 18.7547 83.9068 20.346V58.41Z" fill="currentColor"/>
</svg>
