<svg width="24" height="24" viewBox="0 0 24 24" fill="none" xmlns="http://www.w3.org/2000/svg">
  <path d="M6.61968 5.44327L6.61827 5.43903C6.61579 5.42595 6.61013 5.41464 6.60695 5.40155L6.60059 5.38105C6.59316 5.3517 6.58538 5.32271 6.57513 5.29478C6.57018 5.28064 6.567 5.26544 6.56064 5.252C6.55286 5.23291 6.5419 5.21629 6.53271 5.19791C6.51927 5.17033 6.50584 5.14275 6.48957 5.11659C6.48215 5.10422 6.47649 5.09149 6.46801 5.07947C6.45669 5.0625 6.4429 5.048 6.43088 5.03244C6.41144 5.00663 6.39093 4.98189 6.36901 4.95784C6.36017 4.9483 6.35416 4.93734 6.34497 4.92815L6.3432 4.92638C6.33047 4.91365 6.31492 4.90375 6.30184 4.89208C6.27715 4.8699 6.25143 4.8489 6.22476 4.82915C6.21309 4.82102 6.20319 4.81041 6.19117 4.80263C6.17632 4.79274 6.16006 4.78566 6.14415 4.77682C6.11695 4.76053 6.08899 4.74555 6.06036 4.73192C6.04657 4.72521 6.03349 4.71707 6.0197 4.71106C6.00308 4.70435 5.98541 4.70081 5.96843 4.69515C5.93953 4.68471 5.91015 4.67563 5.8804 4.66793C5.86449 4.66404 5.84929 4.65803 5.83302 4.6545C5.81535 4.65096 5.79731 4.65131 5.77928 4.64884C5.74939 4.64449 5.7193 4.64154 5.68913 4.64C5.67251 4.63894 5.65625 4.6354 5.63928 4.6354C5.61877 4.6354 5.59862 4.64 5.57811 4.64071C5.56114 4.64212 5.54452 4.63965 5.52755 4.64177L2.34557 4.99532C2.21229 5.00627 2.08256 5.04384 1.96405 5.10581C1.84554 5.16777 1.74067 5.25288 1.65563 5.3561C1.5706 5.45931 1.50713 5.57853 1.46898 5.70671C1.43083 5.83488 1.41878 5.9694 1.43354 6.10232C1.44829 6.23523 1.48956 6.36384 1.5549 6.48052C1.62023 6.59721 1.70831 6.6996 1.81391 6.78165C1.91952 6.8637 2.04051 6.92373 2.16972 6.95819C2.29894 6.99265 2.43375 7.00085 2.56619 6.98229L3.41967 6.88754C2.32017 8.73041 1.84306 10.8783 2.05891 13.0133C2.27476 15.1484 3.17211 17.1573 4.61821 18.7428C6.06431 20.3283 7.98235 21.4062 10.0886 21.8172C11.8666 22.164 13.6989 22.02 15.3914 21.4098C15.9109 21.2226 16.1204 20.6206 15.8823 20.1224C15.6442 19.6241 15.0484 19.4199 14.5243 19.594C13.2309 20.024 11.8432 20.1178 10.4939 19.8586C8.8157 19.5361 7.28498 18.6845 6.12617 17.4286C4.96735 16.1727 4.2414 14.5785 4.05478 12.8799C3.86815 11.1812 4.23066 9.46748 5.08915 7.98992L5.36456 9.36701C5.38971 9.49636 5.44017 9.61946 5.51305 9.72925C5.58592 9.83903 5.67978 9.93333 5.78922 10.0067C5.89866 10.0801 6.02152 10.1312 6.15075 10.1569C6.27998 10.1827 6.41302 10.1826 6.54224 10.1568C6.67145 10.131 6.79429 10.0798 6.90368 10.0064C7.01307 9.93292 7.10687 9.83856 7.17968 9.72873C7.25249 9.6189 7.30287 9.49576 7.32793 9.3664C7.353 9.23703 7.35225 9.10399 7.32573 8.97492L6.61968 5.44539L6.61968 5.44327ZM19.0729 4.92815C17.6093 3.4674 15.7295 2.4954 13.6915 2.14553C11.9834 1.85229 10.2343 2.00814 8.61356 2.5897C8.09368 2.77624 7.88351 3.37842 8.12169 3.87676C8.35964 4.37462 8.95495 4.57873 9.47857 4.40463C10.7722 3.97451 12.1601 3.88056 13.5098 4.13987C15.1879 4.4623 16.7187 5.31391 17.8775 6.56983C19.0363 7.82576 19.7622 9.41992 19.9489 11.1186C20.1355 12.8172 19.773 14.5309 18.9145 16.0085L18.6391 14.6314C18.6153 14.5008 18.5657 14.3762 18.4933 14.2649C18.4208 14.1536 18.3269 14.0579 18.2171 13.9832C18.1072 13.9086 17.9836 13.8567 17.8535 13.8303C17.7233 13.804 17.5892 13.8039 17.459 13.8299C17.3288 13.856 17.2051 13.9077 17.0951 13.9821C16.9851 14.0565 16.891 14.1521 16.8183 14.2632C16.7456 14.3743 16.6958 14.4989 16.6718 14.6294C16.6477 14.76 16.6499 14.8941 16.6783 15.0239L17.3843 18.5534L17.3843 18.5548L17.385 18.559C17.3879 18.5725 17.3935 18.5838 17.3967 18.5969L17.4031 18.6174C17.4102 18.6465 17.4187 18.6753 17.4285 18.7036C17.4335 18.7178 17.4366 18.733 17.443 18.7464C17.4508 18.7655 17.4617 18.7821 17.4709 18.8005C17.4844 18.8281 17.4978 18.8557 17.5141 18.8818C17.5215 18.8942 17.5272 18.9069 17.5356 18.919C17.547 18.9359 17.5604 18.9501 17.5724 18.9656C17.5919 18.9916 17.6127 19.0167 17.6346 19.0406C17.6435 19.0501 17.6495 19.0611 17.6587 19.0703L17.6604 19.0721C17.6732 19.0848 17.6884 19.0943 17.7018 19.1063C17.7265 19.1285 17.7522 19.1495 17.7789 19.1693C17.7906 19.1774 17.8005 19.188 17.8125 19.1958C17.8273 19.2057 17.8436 19.2128 17.8591 19.2212C17.8867 19.2375 17.9143 19.2524 17.9433 19.2665C17.9571 19.2732 17.9702 19.2814 17.9839 19.2874C18.0006 19.2941 18.0182 19.2976 18.0352 19.3033C18.0642 19.3139 18.0935 19.3227 18.1232 19.3305C18.1392 19.3344 18.1544 19.3404 18.1706 19.3439C18.1883 19.3475 18.2063 19.3471 18.2244 19.3496C18.2541 19.3538 18.2841 19.357 18.3145 19.3584C18.3311 19.3595 18.3474 19.363 18.3644 19.363C18.3849 19.363 18.405 19.3584 18.4255 19.3577C18.4425 19.3563 18.4591 19.3588 18.4761 19.3567L21.6581 19.0031C21.7906 18.9911 21.9194 18.9529 22.0369 18.8905C22.1545 18.8281 22.2584 18.7429 22.3426 18.6398C22.4268 18.5368 22.4895 18.418 22.5272 18.2904C22.5649 18.1628 22.5768 18.0289 22.5621 17.8966C22.5473 17.7644 22.5064 17.6364 22.4416 17.5202C22.3768 17.404 22.2895 17.3018 22.1847 17.2198C22.0799 17.1378 21.9598 17.0775 21.8315 17.0424C21.7031 17.0074 21.569 16.9983 21.4371 17.0158L20.584 17.1109C21.7207 15.2007 22.1892 12.9665 21.9156 10.7606C21.642 8.55474 20.6418 6.5027 19.0729 4.92815Z" />
</svg>
