<svg width="24" height="24" viewBox="0 0 24 24" fill="none" xmlns="http://www.w3.org/2000/svg">
<path fill-rule="evenodd" clip-rule="evenodd" d="M8 3C7.73478 3 7.48043 3.10536 7.29289 3.29289C7.10536 3.48043 7 3.73478 7 4V16C7 16.2652 7.10536 16.5196 7.29289 16.7071C7.48043 16.8946 7.73478 17 8 17H20.005C20.2538 17.0012 20.4941 16.9097 20.679 16.7433C20.8536 16.5862 20.967 16.3729 21 16.1413V6.41421L17.5858 3H8ZM5.87868 1.87868C6.44129 1.31607 7.20435 1 8 1H18C18.2652 1 18.5196 1.10536 18.7071 1.29289L22.7071 5.29289C22.8946 5.48043 23 5.73478 23 6V16.2C23 16.2334 22.9983 16.2668 22.995 16.3C22.9204 17.0426 22.5716 17.7307 22.0169 18.2299C21.4629 18.7285 20.7432 19.003 19.9979 19C19.997 19 19.996 19 19.995 19L20 18V19H19.9979H8C7.20435 19 6.44129 18.6839 5.87868 18.1213C5.31607 17.5587 5 16.7956 5 16V4C5 3.20435 5.31607 2.44129 5.87868 1.87868Z" fill="currentColor"/>
<path fill-rule="evenodd" clip-rule="evenodd" d="M10 1C10.5523 1 11 1.44772 11 2V5H16C16.5523 5 17 5.44772 17 6C17 6.55228 16.5523 7 16 7H10C9.44772 7 9 6.55228 9 6V2C9 1.44772 9.44772 1 10 1Z" fill="currentColor"/>
<path fill-rule="evenodd" clip-rule="evenodd" d="M9 11C9 10.4477 9.44772 10 10 10H18C18.5523 10 19 10.4477 19 11V18C19 18.5523 18.5523 19 18 19C17.4477 19 17 18.5523 17 18V12H11V18C11 18.5523 10.5523 19 10 19C9.44772 19 9 18.5523 9 18V11Z" fill="currentColor"/>
<path fill-rule="evenodd" clip-rule="evenodd" d="M2 5C2.55228 5 3 5.44772 3 6V20C3 20.2652 3.10536 20.5196 3.29289 20.7071C3.48043 20.8946 3.73478 21 4 21H18C18.5523 21 19 21.4477 19 22C19 22.5523 18.5523 23 18 23H4C3.20435 23 2.44129 22.6839 1.87868 22.1213C1.31607 21.5587 1 20.7956 1 20V6C1 5.44772 1.44772 5 2 5Z" fill="currentColor"/>
</svg>
