<svg width="24" height="24" viewBox="0 0 24 24" fill="none" xmlns="http://www.w3.org/2000/svg">
<path d="M17.9997 14C17.4088 14.0039 16.8262 14.1386 16.2937 14.3945C15.7611 14.6504 15.2919 15.0211 14.9197 15.48L9.81966 13.13C10.0595 12.3957 10.0595 11.6042 9.81966 10.87L14.9197 8.51999C15.5213 9.24596 16.36 9.73607 17.2878 9.90383C18.2156 10.0716 19.1729 9.90622 19.9906 9.4369C20.8084 8.96757 21.434 8.22447 21.7572 7.33874C22.0804 6.453 22.0803 5.48157 21.757 4.5959C21.4336 3.71022 20.8078 2.96724 19.99 2.49806C19.1722 2.02889 18.2149 1.86369 17.2871 2.03162C16.3593 2.19955 15.5207 2.68981 14.9192 3.41589C14.3177 4.14196 13.992 5.05717 13.9997 5.99999C14.0027 6.23822 14.0261 6.47576 14.0697 6.70999L8.78966 9.13999C8.22674 8.58957 7.51391 8.21751 6.74047 8.07042C5.96703 7.92333 5.16738 8.00776 4.44171 8.31312C3.71604 8.61849 3.09662 9.13121 2.66106 9.78705C2.2255 10.4429 1.99316 11.2127 1.99316 12C1.99316 12.7873 2.2255 13.5571 2.66106 14.2129C3.09662 14.8688 3.71604 15.3815 4.44171 15.6869C5.16738 15.9922 5.96703 16.0767 6.74047 15.9296C7.51391 15.7825 8.22674 15.4104 8.78966 14.86L14.0697 17.29C14.0261 17.5242 14.0027 17.7618 13.9997 18C13.9997 18.7911 14.2343 19.5645 14.6738 20.2223C15.1133 20.8801 15.738 21.3928 16.4689 21.6955C17.1998 21.9983 18.0041 22.0775 18.78 21.9231C19.5559 21.7688 20.2687 21.3878 20.8281 20.8284C21.3875 20.269 21.7685 19.5563 21.9228 18.7804C22.0771 18.0044 21.9979 17.2002 21.6952 16.4693C21.3924 15.7384 20.8797 15.1136 20.2219 14.6741C19.5641 14.2346 18.7908 14 17.9997 14ZM17.9997 3.99999C18.3952 3.99999 18.7819 4.11729 19.1108 4.33705C19.4397 4.55682 19.696 4.86917 19.8474 5.23463C19.9988 5.60008 20.0384 6.00221 19.9612 6.39017C19.8841 6.77813 19.6936 7.1345 19.4139 7.41421C19.1342 7.69391 18.7778 7.88439 18.3898 7.96156C18.0019 8.03873 17.5997 7.99913 17.2343 7.84775C16.8688 7.69638 16.5565 7.44003 16.3367 7.11113C16.117 6.78223 15.9997 6.39556 15.9997 5.99999C15.9997 5.46956 16.2104 4.96085 16.5854 4.58578C16.9605 4.21071 17.4692 3.99999 17.9997 3.99999ZM5.99966 14C5.6041 14 5.21742 13.8827 4.88852 13.6629C4.55962 13.4432 4.30328 13.1308 4.1519 12.7654C4.00053 12.3999 3.96092 11.9978 4.03809 11.6098C4.11526 11.2218 4.30574 10.8655 4.58545 10.5858C4.86515 10.3061 5.22152 10.1156 5.60948 10.0384C5.99744 9.96125 6.39958 10.0009 6.76503 10.1522C7.13048 10.3036 7.44284 10.56 7.6626 10.8889C7.88236 11.2178 7.99966 11.6044 7.99966 12C7.99966 12.5304 7.78895 13.0391 7.41388 13.4142C7.0388 13.7893 6.5301 14 5.99966 14ZM17.9997 20C17.6041 20 17.2174 19.8827 16.8885 19.6629C16.5596 19.4432 16.3033 19.1308 16.1519 18.7654C16.0005 18.3999 15.9609 17.9978 16.0381 17.6098C16.1153 17.2218 16.3057 16.8655 16.5854 16.5858C16.8652 16.3061 17.2215 16.1156 17.6095 16.0384C17.9974 15.9613 18.3996 16.0009 18.765 16.1522C19.1305 16.3036 19.4428 16.56 19.6626 16.8889C19.8824 17.2177 19.9997 17.6044 19.9997 18C19.9997 18.5304 19.7889 19.0391 19.4139 19.4142C19.0388 19.7893 18.5301 20 17.9997 20Z" fill="currentColor"/>
</svg>
