
<svg width="20" height="20" viewBox="0 0 20 20" fill="none" xmlns="http://www.w3.org/2000/svg">
<path fill-rule="evenodd" clip-rule="evenodd" d="M5 2.49999C4.8113 2.49999 4.60463 2.57388 4.42259 2.75592C4.24055 2.93796 4.16667 3.14463 4.16667 3.33333V18.3333C4.16667 18.7936 3.79357 19.1667 3.33333 19.1667C2.8731 19.1667 2.5 18.7936 2.5 18.3333V3.33333C2.5 2.68869 2.75945 2.06203 3.24408 1.57741C3.7287 1.09278 4.35537 0.833328 5 0.833328H12.0833C12.3043 0.833328 12.5163 0.921126 12.6726 1.07741L17.2559 5.66074C17.4122 5.81702 17.5 6.02898 17.5 6.24999V16.6667C17.5 17.3113 17.2405 17.938 16.7559 18.4226C16.2713 18.9072 15.6446 19.1667 15 19.1667H13.3333C12.8731 19.1667 12.5 18.7936 12.5 18.3333C12.5 17.8731 12.8731 17.5 13.3333 17.5H15C15.1887 17.5 15.3954 17.4261 15.5774 17.2441C15.7595 17.062 15.8333 16.8554 15.8333 16.6667V6.59517L11.7382 2.49999H5Z" fill="currentColor"/>
<path fill-rule="evenodd" clip-rule="evenodd" d="M11.6654 0.833328C12.1256 0.833328 12.4987 1.20642 12.4987 1.66666V5.83333H16.6654C17.1256 5.83333 17.4987 6.20642 17.4987 6.66666C17.4987 7.1269 17.1256 7.49999 16.6654 7.49999H11.6654C11.2051 7.49999 10.832 7.1269 10.832 6.66666V1.66666C10.832 1.20642 11.2051 0.833328 11.6654 0.833328Z" fill="currentColor"/>
<path fill-rule="evenodd" clip-rule="evenodd" d="M8.33203 15.8333C7.87179 15.8333 7.4987 16.2064 7.4987 16.6667C7.4987 17.1269 7.87179 17.5 8.33203 17.5C8.79227 17.5 9.16536 17.1269 9.16536 16.6667C9.16536 16.2064 8.79227 15.8333 8.33203 15.8333ZM5.83203 16.6667C5.83203 15.286 6.95132 14.1667 8.33203 14.1667C9.71274 14.1667 10.832 15.286 10.832 16.6667C10.832 18.0474 9.71274 19.1667 8.33203 19.1667C6.95132 19.1667 5.83203 18.0474 5.83203 16.6667Z" fill="currentColor"/>
<path fill-rule="evenodd" clip-rule="evenodd" d="M8.33333 4.16667C8.79357 4.16667 9.16667 4.53977 9.16667 5.00001V5.83334C9.16667 6.29358 8.79357 6.66667 8.33333 6.66667C7.8731 6.66667 7.5 6.29358 7.5 5.83334V5.00001C7.5 4.53977 7.8731 4.16667 8.33333 4.16667Z" fill="currentColor"/>
<path fill-rule="evenodd" clip-rule="evenodd" d="M8.33333 8.33333C8.79357 8.33333 9.16667 8.70642 9.16667 9.16666V9.99999C9.16667 10.4602 8.79357 10.8333 8.33333 10.8333C7.8731 10.8333 7.5 10.4602 7.5 9.99999V9.16666C7.5 8.70642 7.8731 8.33333 8.33333 8.33333Z" fill="currentColor"/>
<path fill-rule="evenodd" clip-rule="evenodd" d="M8.33333 12.5C8.79357 12.5 9.16667 12.8731 9.16667 13.3333V15C9.16667 15.4602 8.79357 15.8333 8.33333 15.8333C7.8731 15.8333 7.5 15.4602 7.5 15V13.3333C7.5 12.8731 7.8731 12.5 8.33333 12.5Z" fill="currentColor"/>
</svg>
