<svg width="35" height="31" viewBox="0 0 35 31" xmlns="http://www.w3.org/2000/svg">
  <path d="M2.69141 13.5C1.58684 13.5 0.691406 14.3954 0.691406 15.5C0.691406 16.6046 1.58684 17.5 2.69141 17.5V13.5ZM34.3058 16.9142C35.0869 16.1332 35.0869 14.8668 34.3058 14.0858L21.5779 1.35786C20.7968 0.576816 19.5305 0.576816 18.7495 1.35786C17.9684 2.13891 17.9684 3.40524 18.7495 4.18629L30.0632 15.5L18.7495 26.8137C17.9684 27.5948 17.9684 28.8611 18.7495 29.6421C19.5305 30.4232 20.7968 30.4232 21.5779 29.6421L34.3058 16.9142ZM2.69141 17.5H32.8916V13.5H2.69141V17.5Z" fill="currentColor"/>
</svg>
