<svg width="28" height="28" viewBox="0 0 28 28" xmlns="http://www.w3.org/2000/svg">
<g clip-path="url(#clip0_8209_308)">
<path d="M28 14C28 6.26801 21.732 0 14 0C6.26801 0 0 6.26801 0 14C0 21.732 6.26801 28 14 28C21.732 28 28 21.732 28 14Z" fill="#E6007A"/>
<path d="M14.0024 8.61143C15.8432 8.61143 17.3355 7.74143 17.3355 6.66826C17.3355 5.59509 15.8432 4.7251 14.0024 4.7251C12.1617 4.7251 10.6694 5.59509 10.6694 6.66826C10.6694 7.74143 12.1617 8.61143 14.0024 8.61143Z" fill="white"/>
<path d="M14.0024 23.2528C15.8432 23.2528 17.3355 22.3828 17.3355 21.3096C17.3355 20.2364 15.8432 19.3665 14.0024 19.3665C12.1617 19.3665 10.6694 20.2364 10.6694 21.3096C10.6694 22.3828 12.1617 23.2528 14.0024 23.2528Z" fill="white"/>
<path d="M9.35764 11.3011C10.278 9.70308 10.2721 7.9724 9.34431 7.43543C8.41656 6.8985 6.91832 7.75862 5.99792 9.35658C5.07753 10.9545 5.08351 12.6853 6.01129 13.2222C6.93904 13.7592 8.43725 12.899 9.35764 11.3011Z" fill="white"/>
<path d="M22.0056 18.621C22.926 17.023 22.9205 15.2926 21.9934 14.756C21.0663 14.2194 19.5686 15.0799 18.6482 16.6778C17.7278 18.2758 17.7332 20.0062 18.6604 20.5428C19.5875 21.0794 21.0852 20.219 22.0056 18.621Z" fill="white"/>
<path d="M9.3448 20.5423C10.2725 20.0053 10.2785 18.2746 9.35814 16.6767C8.43774 15.0787 6.93953 14.2186 6.01175 14.7555C5.08401 15.2925 5.07802 17.0232 5.99842 18.6211C6.91881 20.2191 8.41702 21.0792 9.3448 20.5423Z" fill="white"/>
<path d="M21.9941 13.2228C22.9212 12.6862 22.9267 10.9557 22.0063 9.35778C21.086 7.75982 19.5882 6.89938 18.6611 7.43596C17.734 7.97258 17.7285 9.70298 18.6489 11.3009C19.5693 12.8989 21.067 13.7593 21.9941 13.2228Z" fill="white"/>
</g>
<defs>
<clipPath id="clip0_8209_308">
<rect width="28" height="28" fill="white"/>
</clipPath>
</defs>
</svg>
