<svg width="128" height="39" viewBox="0 0 128 38" fill="none" xmlns="http://www.w3.org/2000/svg">
  <path d="M6.87594 23.3151C7.35928 22.3923 8.01738 21.682 8.85572 21.1843C9.69132 20.6865 10.6225 20.439 11.6465 20.439C12.4248 20.439 13.1675 20.6058 13.8748 20.9394C14.582 21.273 15.1446 21.717 15.5624 22.2712V16.667H18.6344V32.4384H15.5624V30.6896C15.1883 31.2735 14.6612 31.7416 13.984 32.0967C13.3068 32.4519 12.5203 32.6295 11.6274 32.6295C10.617 32.6295 9.69405 32.3739 8.85845 31.8627C8.02284 31.3515 7.36201 30.6304 6.87867 29.6995C6.39533 28.7687 6.15503 27.7005 6.15503 26.4925C6.15503 25.2845 6.39533 24.2406 6.87867 23.3178L6.87594 23.3151ZM15.1528 24.6684C14.8633 24.1491 14.4755 23.751 13.984 23.4738C13.4925 23.1967 12.9682 23.0595 12.4057 23.0595C11.8431 23.0595 11.3243 23.194 10.8491 23.4658C10.374 23.7348 9.98624 24.1303 9.69132 24.6496C9.3964 25.1688 9.24894 25.7822 9.24894 26.4925C9.24894 27.2028 9.3964 27.8243 9.69132 28.357C9.98624 28.8897 10.3767 29.2987 10.8601 29.5839C11.3434 29.869 11.8595 30.009 12.4057 30.009C12.9518 30.009 13.4952 29.869 13.984 29.5946C14.4728 29.3175 14.8633 28.9193 15.1528 28.4001C15.4422 27.8808 15.5842 27.2593 15.5842 26.5356C15.5842 25.8118 15.4395 25.1903 15.1528 24.6711V24.6684Z" fill="currentColor"/>
  <path d="M31.8512 27.4285H23.091C23.162 28.2814 23.4651 28.9486 24.0003 29.4329C24.5328 29.9172 25.1909 30.1566 25.9692 30.1566C27.0942 30.1566 27.8943 29.6804 28.3695 28.728H31.6354C31.2886 29.8661 30.6251 30.7997 29.6447 31.5315C28.6644 32.2633 27.4601 32.6292 26.032 32.6292C24.8769 32.6292 23.8447 32.3763 22.9271 31.8731C22.0124 31.37 21.2969 30.6544 20.7863 29.7315C20.2729 28.8087 20.0189 27.7433 20.0189 26.5353C20.0189 25.3273 20.2701 24.2403 20.7753 23.3175C21.2805 22.3947 21.9878 21.6844 22.8944 21.1867C23.8037 20.6889 24.8496 20.4414 26.032 20.4414C27.2144 20.4414 28.192 20.6835 29.0931 21.1651C29.9943 21.6494 30.6933 22.3328 31.1903 23.2206C31.6873 24.1085 31.9358 25.1282 31.9358 26.2797C31.9358 26.7048 31.9058 27.0895 31.8484 27.4312L31.8512 27.4285ZM28.8009 25.4241C28.7873 24.6573 28.506 24.0412 27.9571 23.5812C27.4083 23.1184 26.7392 22.8897 25.9446 22.8897C25.1936 22.8897 24.5628 23.113 24.0522 23.5623C23.5388 24.0089 23.2275 24.6304 23.1101 25.4268H28.7982L28.8009 25.4241Z" fill="currentColor"/>
  <path d="M38.282 29.6886L41.3104 20.6299H44.5327L40.098 32.4383H36.4197L32.0068 20.6299H35.2509L38.2793 29.6886H38.282Z" fill="currentColor"/>
  <path d="M56.1956 22.0368C55.8488 21.4127 55.3736 20.9364 54.7674 20.6082C54.1612 20.2827 53.4539 20.1185 52.6484 20.1185C51.7527 20.1185 50.9608 20.3176 50.2699 20.7158C49.579 21.114 49.0356 21.6817 48.6478 22.4216C48.2573 23.1614 48.0635 24.0143 48.0635 24.9802C48.0635 25.9461 48.2628 26.842 48.6588 27.5792C49.0547 28.319 49.6063 28.8867 50.3136 29.2849C51.0208 29.6831 51.8428 29.8822 52.7794 29.8822C53.9318 29.8822 54.8766 29.5809 55.6139 28.9755C56.3485 28.3729 56.8318 27.5307 57.0639 26.4492H51.8728V24.1677H60.0486V26.7667C59.8465 27.8052 59.4151 28.763 58.7515 29.6428C58.088 30.5252 57.2332 31.2301 56.1874 31.7628C55.1415 32.2955 53.97 32.5619 52.6729 32.5619C51.2175 32.5619 49.9012 32.239 48.7243 31.5933C47.5501 30.9476 46.6271 30.049 45.9553 28.8975C45.2836 27.746 44.9504 26.4384 44.9504 24.9748C44.9504 23.5112 45.2863 22.201 45.9553 21.0414C46.6271 19.8845 47.5474 18.9805 48.7243 18.3348C49.8985 17.6891 51.2093 17.3662 52.6511 17.3662C54.3523 17.3662 55.8324 17.7752 57.0858 18.5931C58.3392 19.411 59.2048 20.5571 59.6827 22.0341H56.201L56.1956 22.0368Z" fill="currentColor"/>
  <path d="M66.201 20.9907C66.829 20.6356 67.5445 20.458 68.3528 20.458V23.5897H67.5527C66.5997 23.5897 65.8842 23.8103 65.4009 24.2515C64.9175 24.6928 64.6772 25.4596 64.6772 26.5546V32.4359H61.6489V20.6275H64.6772V22.4597C65.0677 21.8355 65.5756 21.3432 66.201 20.988V20.9907Z" fill="currentColor"/>
  <path d="M72.0611 31.8731C71.1381 31.37 70.4145 30.6544 69.8874 29.7315C69.3604 28.8087 69.0983 27.7433 69.0983 26.5353C69.0983 25.3273 69.3686 24.2618 69.9093 23.339C70.45 22.4162 71.19 21.7005 72.1266 21.1974C73.0633 20.6943 74.1091 20.4414 75.2642 20.4414C76.4193 20.4414 77.4625 20.6943 78.4018 21.1974C79.3385 21.7032 80.0785 22.4162 80.6192 23.339C81.1599 24.2618 81.4302 25.3273 81.4302 26.5353C81.4302 27.7433 81.1517 28.8087 80.5973 29.7315C80.043 30.6544 79.2921 31.37 78.3472 31.8731C77.4024 32.3789 76.3456 32.6292 75.1769 32.6292C74.0081 32.6292 72.9841 32.3763 72.0611 31.8731ZM76.7224 29.6347C77.2058 29.371 77.5908 28.9782 77.8803 28.4509C78.1697 27.9262 78.3117 27.2859 78.3117 26.5326C78.3117 25.4107 78.0114 24.547 77.4133 23.9417C76.8153 23.339 76.0835 23.035 75.2178 23.035C74.3522 23.035 73.6285 23.3363 73.0442 23.9417C72.4598 24.547 72.1676 25.408 72.1676 26.5326C72.1676 27.6572 72.4516 28.5181 73.0223 29.1208C73.593 29.7262 74.3085 30.0275 75.1741 30.0275C75.723 30.0275 76.2364 29.8957 76.7197 29.632L76.7224 29.6347Z" fill="currentColor"/>
  <path d="M94.5268 20.6296V32.438H91.4766V30.9448C91.0861 31.456 90.5782 31.8569 89.9528 32.1502C89.3248 32.4407 88.6448 32.586 87.9075 32.586C86.9709 32.586 86.1407 32.3896 85.4198 31.9995C84.6989 31.6094 84.1336 31.0336 83.7213 30.2722C83.309 29.5135 83.1042 28.6068 83.1042 27.5549V20.627H86.1325V27.1271C86.1325 28.0661 86.3701 28.7871 86.8453 29.2902C87.3204 29.796 87.9703 30.0462 88.7923 30.0462C89.6142 30.0462 90.286 29.7933 90.7611 29.2902C91.2363 28.7871 91.4738 28.0634 91.4738 27.1271V20.627H94.5241L94.5268 20.6296Z" fill="currentColor"/>
  <path d="M106.725 21.7917C107.604 22.6796 108.044 23.9199 108.044 25.5099V32.4379H105.015V25.9162C105.015 24.9772 104.778 24.2562 104.303 23.7531C103.828 23.25 103.178 22.9971 102.356 22.9971C101.534 22.9971 100.859 23.25 100.376 23.7531C99.8926 24.2589 99.6523 24.9799 99.6523 25.9162V32.4379H96.624V20.6295H99.6523V22.1011C100.056 21.59 100.573 21.1891 101.198 20.8958C101.826 20.6052 102.514 20.46 103.265 20.46C104.693 20.46 105.846 20.9039 106.725 21.7917Z" fill="currentColor"/>
  <path d="M110.089 23.3151C110.573 22.3923 111.231 21.682 112.069 21.1843C112.905 20.6865 113.836 20.439 114.86 20.439C115.638 20.439 116.381 20.6058 117.088 20.9394C117.795 21.273 118.358 21.717 118.776 22.2712V16.667H121.848V32.4384H118.776V30.6896C118.402 31.2735 117.874 31.7416 117.197 32.0967C116.52 32.4519 115.734 32.6295 114.841 32.6295C113.83 32.6295 112.907 32.3739 112.072 31.8627C111.236 31.3515 110.575 30.6304 110.092 29.6995C109.609 28.7687 109.368 27.7005 109.368 26.4925C109.368 25.2845 109.609 24.2406 110.092 23.3178L110.089 23.3151ZM118.363 24.6684C118.074 24.1491 117.686 23.751 117.195 23.4738C116.703 23.1967 116.179 23.0595 115.616 23.0595C115.054 23.0595 114.535 23.194 114.06 23.4658C113.585 23.7348 113.197 24.1303 112.902 24.6496C112.607 25.1688 112.459 25.7822 112.459 26.4925C112.459 27.2028 112.607 27.8243 112.902 28.357C113.197 28.8897 113.587 29.2987 114.071 29.5839C114.554 29.869 115.07 30.009 115.616 30.009C116.162 30.009 116.706 29.869 117.195 29.5946C117.683 29.3175 118.074 28.9193 118.363 28.4001C118.653 27.8808 118.795 27.2593 118.795 26.5356C118.795 25.8118 118.65 25.1903 118.363 24.6711V24.6684Z" fill="currentColor"/>
  <path d="M50.8215 0.5H13.9622V10.6027H50.8215V0.5Z" fill="#E6007A"/>
  <path d="M19.0714 2.38574C18.5798 2.38574 18.1047 2.44762 17.9108 2.49874C17.6296 2.57676 17.5586 2.69783 17.5067 2.94805L16.3898 8.02224C16.3734 8.12717 16.3543 8.21326 16.3543 8.29936C16.3543 8.54957 16.5209 8.71638 16.794 8.71638C17.0916 8.71638 17.2172 8.52536 17.2773 8.2321L17.5941 6.78463C17.8125 6.81154 18.1047 6.83575 18.517 6.83575C20.3357 6.83575 21.4717 5.8645 21.4717 4.40358C21.4717 3.12293 20.5651 2.38574 19.0714 2.38574ZM18.4734 6.00709C18.1921 6.00709 17.9736 5.99902 17.7688 5.97212L18.3587 3.27897C18.5444 3.25207 18.8147 3.21709 19.096 3.21709C20.0626 3.21709 20.5542 3.6664 20.5542 4.41165C20.5542 5.36407 19.8496 6.0044 18.4706 6.0044L18.4734 6.00709Z" fill="#FBFCFE"/>
  <path d="M47.7057 7.04531C47.5556 7.04531 47.46 7.1314 47.2743 7.3305C46.9493 7.65873 46.7473 7.84168 46.4933 7.84168C46.2639 7.84168 46.141 7.65873 46.141 7.36547C46.141 7.20136 46.1765 7.00226 46.2202 6.78434L46.5452 5.27768H47.5201C47.8286 5.27768 48.0116 5.10549 48.0116 4.7934C48.0116 4.62121 47.8969 4.48938 47.6347 4.48938H46.7199L46.8783 3.78717C46.8947 3.68224 46.9138 3.58808 46.9138 3.50198C46.9138 3.25984 46.7473 3.08496 46.4742 3.08496C46.1847 3.08496 46.0509 3.27598 45.9908 3.56924L45.7888 4.48669H45.3764C45.0597 4.48669 44.8767 4.65888 44.8767 4.97097C44.8767 5.14316 44.9996 5.27499 45.2645 5.27499H45.6249L45.3 6.7655C45.2645 6.92962 45.2208 7.19866 45.2208 7.47578C45.2208 8.17799 45.5894 8.68918 46.3813 8.68918C46.8374 8.68918 47.2415 8.46318 47.5501 8.19682C47.8477 7.93585 48.0689 7.61569 48.0689 7.40852C48.0689 7.20943 47.9105 7.04531 47.7085 7.04531H47.7057Z" fill="#FBFCFE"/>
  <path d="M27.4902 2.89749C27.4902 2.64728 27.3155 2.48047 27.0424 2.48047C26.7529 2.48047 26.6191 2.67149 26.559 2.96475L25.4613 7.9959C25.434 8.10083 25.4176 8.18692 25.4176 8.27301C25.4176 8.52323 25.5924 8.69004 25.8572 8.69004C26.1549 8.69004 26.2887 8.49901 26.3488 8.20575L27.4465 3.17461C27.4629 3.06968 27.4902 2.98358 27.4902 2.89749Z" fill="#FBFCFE"/>
  <path d="M43.1809 4.40438C41.7746 4.40438 40.8161 5.78189 40.8161 7.08945C40.8161 7.11367 40.8161 7.13788 40.8161 7.1621C40.595 7.49302 40.3137 7.83471 40.1198 7.83471C39.9805 7.83471 39.9259 7.70557 39.9259 7.50648C39.9259 7.26433 39.9969 6.85808 40.0761 6.50294L40.8052 3.17754C40.8216 3.07261 40.8407 2.98651 40.8407 2.90042C40.8407 2.65021 40.6741 2.4834 40.4011 2.4834C40.1034 2.4834 39.9778 2.67442 39.9177 2.96768L39.5218 4.77028C39.3115 4.55505 39.0029 4.40707 38.536 4.40707C37.6021 4.40707 36.6627 5.11466 36.2968 6.20161C35.8926 7.22936 35.5322 7.8374 35.2482 7.8374C35.1417 7.8374 35.0816 7.75131 35.0816 7.60333C35.0816 7.17017 35.3274 6.11282 35.4339 5.60163C35.4694 5.41061 35.4858 5.33259 35.4858 5.21959C35.4858 4.83755 34.844 4.38824 34.0084 4.38824C33.0418 4.38824 32.1679 4.9909 31.731 5.88682C31.0784 7.0195 30.4831 7.83471 30.1854 7.83471C30.0544 7.83471 30.0107 7.67059 29.9752 7.51455L29.7567 6.31998L31.1002 5.23842C31.2231 5.1335 31.3815 4.98821 31.3815 4.79719C31.3815 4.56312 31.2231 4.40707 30.9855 4.40707C30.8108 4.40707 30.6606 4.512 30.5104 4.63307L28.4896 6.27963L29.1669 3.18023C29.1833 3.0753 29.2106 2.9892 29.2106 2.90311C29.2106 2.6529 29.0358 2.48609 28.7627 2.48609C28.4733 2.48609 28.3422 2.67711 28.2794 2.97037L27.1816 8.00152C27.1543 8.10645 27.1379 8.19254 27.1379 8.27864C27.1379 8.52885 27.3127 8.69566 27.5776 8.69566C27.8752 8.69566 28.009 8.50463 28.0691 8.21137L28.2084 7.56297L29.0358 6.90381L29.2379 7.90735C29.3171 8.30554 29.5273 8.69566 30.0735 8.69566C30.6169 8.69566 31.0429 8.20868 31.4689 7.54952C31.5972 8.24097 32.0969 8.69566 32.7878 8.69566C33.4814 8.69566 33.9566 8.2894 34.2651 7.74323V7.75938C34.2651 8.32168 34.5546 8.69566 35.0652 8.69566C35.5267 8.69566 35.909 8.42123 36.2504 7.84009C36.4443 8.34859 36.8784 8.69566 37.4819 8.69566C38.1946 8.69566 38.7026 8.27056 39.0302 7.68135V7.73247C39.0302 8.35666 39.347 8.69297 39.8659 8.69297C40.3246 8.69297 40.7124 8.43199 41.0455 8.00421C41.2995 8.4293 41.7501 8.69297 42.3617 8.69297C43.7681 8.69297 44.7265 7.31545 44.7265 5.99982C44.7265 5.07431 44.1558 4.40707 43.1782 4.40707L43.1809 4.40438ZM34.4181 6.16394C34.1641 7.2455 33.618 7.86162 33.0035 7.86162C32.5912 7.86162 32.3618 7.54952 32.3618 7.08138C32.3618 6.16394 33.039 5.17654 33.9429 5.17654C34.216 5.17654 34.4262 5.25457 34.6119 5.36756L34.4181 6.16394ZM39.3142 5.70387C39.033 6.97646 38.3913 7.85892 37.6895 7.85892C37.3017 7.85892 37.075 7.56567 37.075 7.07869C37.075 6.15318 37.725 5.18999 38.5961 5.18999C38.9292 5.18999 39.1859 5.30299 39.3689 5.45097L39.317 5.70118L39.3142 5.70387ZM42.4682 7.85892C41.9576 7.85892 41.7473 7.49571 41.7473 7.03565C41.7473 6.19622 42.3372 5.23304 43.0745 5.23304C43.5851 5.23304 43.7954 5.59625 43.7954 6.05632C43.7954 6.90381 43.2055 7.85892 42.4682 7.85892Z" fill="#FBFCFE"/>
  <path d="M23.659 4.40332C22.2527 4.40332 21.2942 5.78083 21.2942 7.08839C21.2942 8.02467 21.8649 8.68921 22.8425 8.68921C24.2488 8.68921 25.2073 7.3117 25.2073 5.99607C25.2073 5.07055 24.6366 4.40332 23.659 4.40332ZM22.9463 7.85786C22.4356 7.85786 22.2254 7.49465 22.2254 7.03458C22.2254 6.19516 22.8152 5.23198 23.5525 5.23198C24.0631 5.23198 24.2734 5.59519 24.2734 6.05526C24.2734 6.90275 23.6836 7.85786 22.9463 7.85786Z" fill="#FBFCFE"/>
  <path d="M10.3331 13.6347V10.6025H0V38.4999H10.3331V35.4677H3.07753V13.6347H10.3331ZM117.667 35.4677V38.4999H128V10.6025H117.667V13.6347H124.922V35.4677H117.667Z" fill="#E6007A"/>
</svg>
