<svg width="94" height="28" viewBox="0 0 94 28" fill="none" xmlns="http://www.w3.org/2000/svg">
  <path d="M69.3 10.1165C70 9.76223 70.8 9.61039 71.6 9.61039C73.25 9.61039 74.9 10.319 74.9 12.5459V18.8725H73.8V12.5965C73.8 11.0781 72.8 10.4708 71.5 10.4708C70.75 10.4708 70 10.6226 69.3 10.9769V18.9231H68.2V6.32058H69.3V10.1165ZM85.7 7.2316C85.7 7.38344 85.65 7.53528 85.55 7.68712C85.45 7.78834 85.3 7.88957 85.1 7.83895C84.95 7.83895 84.8 7.78834 84.65 7.68712C84.55 7.58589 84.45 7.38344 84.5 7.2316C84.5 7.07977 84.55 6.92793 84.7 6.77609C84.8 6.67487 85 6.62425 85.15 6.62425C85.3 6.62425 85.45 6.67487 85.6 6.77609C85.65 6.92793 85.7 7.07977 85.7 7.2316ZM84.55 9.76223H85.65V18.9231H84.55V9.76223ZM88.2 10.4708C88.95 10.0659 90.05 9.61039 90.9 9.61039C92.6 9.61039 94 10.3696 94 12.5459V18.8725H92.9V12.5965C92.9 11.0781 92.1 10.4708 90.75 10.4708C90 10.4708 89 10.9263 88.35 11.23V18.8725H87.25V9.76223H88.1L88.2 10.4708ZM27.9 5.96629H26V18.8219H33V17.0504H27.9V5.96629ZM35.05 5.81445C34.8 5.81445 34.55 5.91568 34.35 6.06752C34.15 6.26997 34.05 6.52303 34.05 6.77609C34.05 7.02915 34.15 7.28222 34.35 7.48467C34.55 7.68712 34.8 7.78834 35.05 7.78834C35.6 7.78834 36.05 7.33283 36.05 6.77609C36.05 6.21935 35.6 5.81445 35.05 5.81445ZM34.15 9.76223H36V18.8725H34.15V9.76223ZM46.6 9.61039C45.6 9.61039 44.6 9.91407 43.7 10.4202C43.1 9.86346 42.3 9.55978 41.5 9.61039C40.75 9.66101 40 9.86346 39.3 10.1671V9.76223H37.7V18.8725H39.5V11.5843C40.1 11.3818 40.75 11.2806 41.35 11.23C42.75 11.23 42.65 11.9892 42.65 12.5965V18.8219H44.5V13.052C44.5 12.5965 44.5 12.141 44.4 11.7361C45.35 11.2806 45.85 11.23 46.35 11.23C47.35 11.23 47.6 11.8373 47.6 13.0014V18.8219H49.5V12.9002C49.5 10.9263 48.5 9.61039 46.6 9.61039ZM58 15.1778V13.052C58 10.8757 56.7 9.61039 54.45 9.61039C52.15 9.61039 50.75 10.9263 50.75 13.1026V16.1394C50.75 18.1639 52.05 19.0243 54.2 19.0243C55.35 19.0749 56.5 18.67 57.45 17.9615L56.35 16.848C55.75 17.2529 55.05 17.4047 54.3 17.4047C52.75 17.4047 52.6 16.5443 52.6 15.937V15.1778H58ZM52.55 13.052C52.55 11.4324 53.7 11.23 54.4 11.23C55.2 11.23 56.2 11.5337 56.2 13.0014V13.6594H52.55V13.052ZM63.85 18.0627C62.05 18.0627 60.75 17.0504 60.75 15.0259V10.572C60.75 8.49692 62.05 7.53528 63.85 7.53528C64.9 7.53528 65.8 7.94018 66.3 8.59814L67 7.88957C66.35 7.02915 65.25 6.47242 63.8 6.47242C61.35 6.47242 59.65 7.83895 59.65 10.5214V14.9753C59.65 17.7084 61.35 19.0243 63.8 19.0243C65.2 19.0243 66.25 18.5182 66.95 17.7084L66.25 16.9998C65.7 17.7084 64.9 18.0627 63.85 18.0627ZM79.2 9.61039C78.4 9.55978 77.6 9.76223 76.9 10.1671L77.55 10.7745C78.05 10.572 78.6 10.4708 79.1 10.4708C81.4 10.4708 81.7 11.5843 81.75 12.799C81.1 12.6977 80.4 12.6471 79.7 12.6471C77.8 12.6471 76 13.2039 76 15.5827C76 17.8096 77.35 19.0749 79.2 19.0749C80.35 19.0749 81.2 18.5688 81.9 18.1639V18.9231H82.75V13.2545C82.85 11.483 82.45 9.61039 79.2 9.61039ZM81.75 17.4047C81.15 17.7084 80.6 18.1133 79.4 18.2145C77.95 18.3157 77.05 17.2023 77.05 15.6333C77.05 13.9631 78.35 13.5075 79.85 13.5075C80.5 13.5075 81.1 13.5582 81.75 13.6594V17.4047Z" fill="currentColor"/>
  <path d="M17.75 11.2714C17.75 7.70128 16.5 5.91621 14.85 4.69217L19.15 0H16.2L1.45 15.9636L1.4 16.7286C1.4 20.2987 2.65 22.0838 4.3 23.3078L0 27.949H2.95L17.65 11.9854L17.75 11.2714ZM5.7 21.7268C4.4 20.8087 3.55 19.5847 3.5 16.9836L13.45 6.17122C14.75 7.08925 15.55 8.3133 15.65 10.9144L5.7 21.7268ZM11.35 26.929L12.5 25.0419C14.2 24.2259 16.35 22.6448 17.3 19.5847C17.6 18.6157 17.75 16.0656 17.75 14.8925V13.3115L15.65 15.6066C15.65 15.6576 15.65 15.8106 15.65 15.9126C15.6 16.7796 15.4 19.0237 15.1 19.6867C14.35 21.3698 13 22.6958 11.35 23.4098C11.15 23.5118 11 23.6138 10.9 23.8179L9.6 25.9599L8.3 23.7668L6.85 25.3479L7.85 27.031C8.25 27.643 8.9 28 9.65 28C10.3 27.949 11 27.592 11.35 26.929ZM7.8 0.969035L6.65 2.8561C4.95 3.67213 2.8 5.25319 1.85 8.3133C1.55 9.28233 1.4 11.8324 1.4 13.0055V14.5865L3.5 12.2914C3.5 12.2404 3.5 12.0874 3.5 11.9854C3.55 11.1184 3.75 8.87432 4.05 8.21129C4.8 6.52823 6.15 5.20219 7.8 4.48816C8 4.38616 8.15 4.28415 8.25 4.08015L9.55 2.04007L10.85 4.23315L12.3 2.65209L11.3 1.02004C10.95 0.357013 10.3 0 9.55 0C8.85 0 8.2 0.357013 7.8 0.969035Z" fill="#28EB9B"/>
</svg>
