<svg width="17" height="16" viewBox="0 0 17 16" xmlns="http://www.w3.org/2000/svg">
<path fill-rule="evenodd" clip-rule="evenodd" d="M4.1333 2.66668C3.76511 2.66668 3.46663 2.96515 3.46663 3.33334V12.6667C3.46663 13.0349 3.76511 13.3333 4.1333 13.3333H13.4666C13.8348 13.3333 14.1333 13.0349 14.1333 12.6667V3.33334C14.1333 2.96515 13.8348 2.66668 13.4666 2.66668H4.1333ZM2.1333 3.33334C2.1333 2.22877 3.02873 1.33334 4.1333 1.33334H13.4666C14.5712 1.33334 15.4666 2.22877 15.4666 3.33334V12.6667C15.4666 13.7712 14.5712 14.6667 13.4666 14.6667H4.1333C3.02873 14.6667 2.1333 13.7712 2.1333 12.6667V3.33334Z" fill="currentColor"/>
<path fill-rule="evenodd" clip-rule="evenodd" d="M2.1333 8.00001C2.1333 7.63182 2.43178 7.33334 2.79997 7.33334H14.8C15.1682 7.33334 15.4666 7.63182 15.4666 8.00001C15.4666 8.3682 15.1682 8.66668 14.8 8.66668H2.79997C2.43178 8.66668 2.1333 8.3682 2.1333 8.00001Z" fill="currentColor"/>
<path fill-rule="evenodd" clip-rule="evenodd" d="M8.79997 1.33334C9.16816 1.33334 9.46663 1.63182 9.46663 2.00001V14C9.46663 14.3682 9.16816 14.6667 8.79997 14.6667C8.43178 14.6667 8.1333 14.3682 8.1333 14V2.00001C8.1333 1.63182 8.43178 1.33334 8.79997 1.33334Z" fill="currentColor"/>
</svg>
