<svg width="40" height="40" viewBox="0 0 40 40" xmlns="http://www.w3.org/2000/svg">
<path fill-rule="evenodd" clip-rule="evenodd" d="M25 5C25 4.07953 25.7462 3.33334 26.6667 3.33334H31.6667C32.5871 3.33334 33.3333 4.07953 33.3333 5V35C33.3333 35.9205 32.5871 36.6667 31.6667 36.6667H26.6667C25.7462 36.6667 25 35.9205 25 35C25 34.0795 25.7462 33.3333 26.6667 33.3333H30V6.66667H26.6667C25.7462 6.66667 25 5.92048 25 5Z" fill='currentColor'/>
<path fill-rule="evenodd" clip-rule="evenodd" d="M6.6665 5C6.6665 4.07953 7.4127 3.33334 8.33317 3.33334H13.3332C14.2536 3.33334 14.9998 4.07953 14.9998 5C14.9998 5.92048 14.2536 6.66667 13.3332 6.66667H9.99984V33.3333H13.3332C14.2536 33.3333 14.9998 34.0795 14.9998 35C14.9998 35.9205 14.2536 36.6667 13.3332 36.6667H8.33317C7.4127 36.6667 6.6665 35.9205 6.6665 35V5Z" fill='currentColor'/>
</svg>
