<svg width="24" height="24" viewBox="0 0 24 24" fill="none" xmlns="http://www.w3.org/2000/svg">
<path d="M10.1052 6.31573L13.8947 2.52625C13.8947 2.52625 17.6842 -1.26322 21.4737 2.52625C25.2631 6.31573 21.4737 10.1052 21.4737 10.1052L16.421 15.1578C16.421 15.1578 12.6316 18.9473 8.84208 15.1578C8.13156 14.4473 7.69135 13.5031 7.69135 13.5031L9.80903 11.3886C9.80903 11.3886 9.72377 12.25 10.7368 13.2631C10.7368 13.2631 12.6316 15.1578 14.5263 13.2631L19.5789 8.21046C19.5789 8.21046 21.4737 6.31573 19.5789 4.42099C17.6842 2.52625 15.7894 4.42099 15.7894 4.42099L13.4343 6.77615C13.4343 6.77615 12.2633 5.81552 9.8684 6.55257L10.1052 6.31573Z" fill="currentColor"/>
<path d="M13.7968 17.6842L10.0074 21.4736C10.0074 21.4736 6.21789 25.2631 2.42841 21.4736C-1.36106 17.6842 2.42841 13.8947 2.42841 13.8947L7.48104 8.84205C7.48104 8.84205 11.2705 5.05257 15.06 8.84205C15.7705 9.55258 16.2107 10.4968 16.2107 10.4968L14.093 12.6119C14.093 12.6119 14.1783 11.7498 13.1653 10.7368C13.1653 10.7368 11.2705 8.84205 9.37578 10.7368L4.32315 15.7894C4.32315 15.7894 2.42841 17.6842 4.32315 19.5789C6.21789 21.4736 8.11262 19.5789 8.11262 19.5789L10.4678 17.2237C10.4678 17.2237 11.6387 18.1837 14.0337 17.4473L13.7968 17.6842Z" fill="currentColor"/>
</svg>
