<svg width="16" height="16" viewBox="0 0 16 16" fill="none" xmlns="http://www.w3.org/2000/svg">
<g clip-path="url(#clip0_8903_6341)">
<path fill-rule="evenodd" clip-rule="evenodd" d="M6.66666 6.00001C6.29847 6.00001 5.99999 6.29848 5.99999 6.66667V13.3333C5.99999 13.7015 6.29847 14 6.66666 14H13.3333C13.7015 14 14 13.7015 14 13.3333V6.66667C14 6.29848 13.7015 6.00001 13.3333 6.00001H6.66666ZM4.66666 6.66667C4.66666 5.5621 5.56209 4.66667 6.66666 4.66667H13.3333C14.4379 4.66667 15.3333 5.5621 15.3333 6.66667V13.3333C15.3333 14.4379 14.4379 15.3333 13.3333 15.3333H6.66666C5.56209 15.3333 4.66666 14.4379 4.66666 13.3333V6.66667Z" fill="#FBFCFE"/>
<path fill-rule="evenodd" clip-rule="evenodd" d="M2.66666 2.00001C2.30151 2.00001 1.99999 2.30153 1.99999 2.66667V9.33334C1.99999 9.69848 2.30151 10 2.66666 10C3.03485 10 3.33332 10.2985 3.33332 10.6667C3.33332 11.0349 3.03485 11.3333 2.66666 11.3333C1.56513 11.3333 0.666656 10.4349 0.666656 9.33334V2.66667C0.666656 1.56515 1.56513 0.666672 2.66666 0.666672H9.33332C10.4348 0.666672 11.3333 1.56515 11.3333 2.66667C11.3333 3.03486 11.0348 3.33334 10.6667 3.33334C10.2985 3.33334 9.99999 3.03486 9.99999 2.66667C9.99999 2.30153 9.69847 2.00001 9.33332 2.00001H2.66666Z" fill="#FBFCFE"/>
</g>
<defs>
<clipPath id="clip0_8903_6341">
<rect width="16" height="16" fill="currentColor"/>
</clipPath>
</defs>
</svg>
