<svg width="24" height="24" viewBox="0 0 24 24" fill="none" xmlns="http://www.w3.org/2000/svg">
<g clip-path="url(#clip0_10118_17307)">
<path fill-rule="evenodd" clip-rule="evenodd" d="M17.4803 6.51974C17.6925 6.73188 17.7578 7.05005 17.6463 7.32861L14.8179 14.3997C14.7243 14.6337 14.5193 14.8051 14.2724 14.8558C14.0254 14.9065 13.7695 14.8297 13.5912 14.6514L9.34859 10.4088C9.17032 10.2305 9.09355 9.97465 9.14424 9.7277C9.19493 9.48074 9.3663 9.27577 9.60038 9.18214L16.6714 6.35371C16.95 6.24229 17.2682 6.30759 17.4803 6.51974ZM11.2135 10.1524L13.8476 12.7865L15.6037 8.39636L11.2135 10.1524Z" fill="currentColor"/>
<path fill-rule="evenodd" clip-rule="evenodd" d="M9.72745 9.14375C9.97441 9.09306 10.2303 9.16983 10.4086 9.3481L14.6512 13.5907C14.8295 13.769 14.9063 14.0249 14.8556 14.2718C14.8049 14.5188 14.6335 14.7237 14.3994 14.8174L7.32837 17.6458C7.04981 17.7572 6.73164 17.6919 6.5195 17.4798C6.30735 17.2676 6.24204 16.9495 6.35347 16.6709L9.1819 9.59989C9.27553 9.36581 9.4805 9.19444 9.72745 9.14375ZM10.1522 11.213L8.39612 15.6032L12.7863 13.8471L10.1522 11.213Z" fill="currentColor"/>
<path fill-rule="evenodd" clip-rule="evenodd" d="M11.999 2.74988C6.89039 2.74988 2.74902 6.89124 2.74902 11.9999C2.74902 17.1085 6.89039 21.2499 11.999 21.2499C14.0827 21.2499 16.0034 20.5619 17.5495 19.4003C17.8807 19.1515 18.3508 19.2182 18.5996 19.5494C18.8484 19.8806 18.7817 20.3507 18.4505 20.5995C16.6536 21.9496 14.4187 22.7499 11.999 22.7499C6.06196 22.7499 1.24902 17.937 1.24902 11.9999C1.24902 6.06282 6.06196 1.24988 11.999 1.24988C17.9361 1.24988 22.749 6.06282 22.749 11.9999C22.749 13.5274 22.43 14.9824 21.8542 16.3002C21.6884 16.6798 21.2462 16.853 20.8667 16.6872C20.4871 16.5213 20.3138 16.0792 20.4797 15.6996C20.9743 14.5676 21.249 13.3168 21.249 11.9999C21.249 6.89124 17.1077 2.74988 11.999 2.74988Z" fill="currentColor"/>
</g>
<defs>
<clipPath id="clip0_10118_17307">
<rect width="24" height="24" fill="currentColor"/>
</clipPath>
</defs>
</svg>
