<svg width="24" height="24" viewBox="0 0 24 24" xmlns="http://www.w3.org/2000/svg">
<path d="M12 1.96533C6.31938 1.96533 1.71429 6.57042 1.71429 12.251C1.71429 16.8004 4.67112 20.6531 8.76532 22.0099C9.26378 22.0877 9.45431 21.7875 9.45431 21.5213C9.45431 21.277 9.44145 20.4671 9.44145 19.6056C6.85715 20.0813 6.18856 18.9756 5.98289 18.397C5.75456 17.8344 5.3927 17.3358 4.92858 16.9442C4.5686 16.7514 4.05432 16.2756 4.91571 16.2627C5.58325 16.3352 6.17355 16.7287 6.49718 17.317C6.49819 17.3189 6.49919 17.3206 6.5002 17.3224C7.09377 18.3817 8.4336 18.7591 9.49288 18.1656C9.53738 17.6427 9.77042 17.1538 10.1486 16.7899C7.86005 16.5328 5.46861 15.6456 5.46861 11.7113C5.45411 10.689 5.83135 9.70001 6.52286 8.94704C6.20839 8.05854 6.24518 7.08351 6.62574 6.2213C6.62574 6.2213 7.48713 5.95129 9.45431 7.27561C11.1374 6.81268 12.9141 6.81268 14.5972 7.27561C16.5643 5.93842 17.4257 6.2213 17.4257 6.2213C17.8062 7.08351 17.843 8.05853 17.5286 8.94704C18.2222 9.69875 18.5997 10.6886 18.5829 11.7113C18.5829 15.6584 16.1786 16.5328 13.89 16.7899C14.3867 17.2933 14.6401 17.9877 14.5843 18.6927C14.5843 20.0685 14.5714 21.1742 14.5714 21.5213C14.5707 21.5761 14.5789 21.6307 14.5957 21.6828C14.6812 21.9491 14.9661 22.0955 15.2324 22.0107C19.3278 20.6546 22.2857 16.8013 22.2857 12.251C22.2857 6.57042 17.6806 1.96533 12 1.96533Z" fill="currentColor"/>
</svg>
