<svg width="40" height="40" viewBox="0 0 40 40" xmlns="http://www.w3.org/2000/svg">
<path d="M20.0003 3.27555C10.5326 3.27555 2.85742 10.9507 2.85742 20.4184C2.85742 28.0006 7.78546 34.4219 14.6091 36.6832C15.4399 36.8128 15.7575 36.3126 15.7575 35.8688C15.7575 35.4617 15.736 34.1118 15.736 32.676C11.4289 33.4689 10.3145 31.626 9.97174 30.6617C9.5912 29.7239 8.9881 28.8929 8.21456 28.2403C7.6146 27.9189 6.75746 27.126 8.19312 27.1046C9.30567 27.2253 10.2895 27.8811 10.8289 28.8617C10.8306 28.8648 10.8322 28.8677 10.8339 28.8707C11.8232 30.6361 14.0563 31.2652 15.8217 30.2759C15.8959 29.4045 16.2843 28.5896 16.9146 27.9832C13.1003 27.5546 9.11462 26.0759 9.11462 19.5189C9.09044 17.815 9.71918 16.1667 10.8717 14.9117C10.3476 13.4309 10.4089 11.8059 11.0432 10.3688C11.0432 10.3688 12.4788 9.91882 15.7575 12.126C18.5625 11.3545 21.5238 11.3545 24.3289 12.126C27.6074 9.89736 29.0432 10.3688 29.0432 10.3688C29.6773 11.8059 29.7387 13.4309 29.2146 14.9117C30.3705 16.1646 30.9998 17.8143 30.9717 19.5189C30.9717 26.0974 26.9646 27.5546 23.1503 27.9832C23.9782 28.8221 24.4005 29.9795 24.3074 31.1546C24.3074 33.4474 24.286 35.2903 24.286 35.8688C24.2848 35.9602 24.2984 36.0511 24.3264 36.138C24.469 36.5818 24.9438 36.8258 25.3876 36.6845C32.2133 34.4244 37.1431 28.0021 37.1431 20.4184C37.1431 10.9507 29.468 3.27555 20.0003 3.27555Z" fill="currentColor"/>
</svg>
