<svg width="128" height="129" viewBox="0 0 128 129" fill="none" xmlns="http://www.w3.org/2000/svg">
<path d="M123.635 111.319L123.098 110.779L110.085 123.791L110.402 124.105L113.853 127.551C116.063 129.766 120.769 128.647 124.365 125.056C127.958 121.459 129.076 116.754 126.865 114.544L123.641 111.319L123.635 111.319Z" fill="#BBBBBB"/>
<path d="M119.913 107.65L106.9 120.653L110.085 123.791L123.098 110.779L122.726 110.407L122.715 110.413L119.913 107.65Z" fill="#444444"/>
<path d="M50.7019 0C22.6994 0 0 22.7051 0 50.7095C0 78.7128 22.6994 101.413 50.7019 101.413C61.0839 101.413 70.7208 98.2884 78.7622 92.9358L106.9 120.653L119.913 107.65L91.9589 80.1168C97.8869 71.8191 101.411 61.6833 101.411 50.7095C101.411 22.7051 78.7117 0 50.7019 0ZM51.3954 86.3627C31.7071 86.3627 15.7417 70.4018 15.7417 50.7097C15.7417 31.0161 31.7071 15.0565 51.3954 15.0565C71.0882 15.0565 87.0503 31.0163 87.0503 50.7097C87.0503 70.4018 71.0882 86.3627 51.3954 86.3627Z" fill="#BBBBBB"/>
<path d="M57.5226 28.6481L32.6169 59.9751C31.7939 61.0168 31.9648 62.5304 33.006 63.3638C33.4502 63.7117 33.9794 63.8845 34.5063 63.8845C35.2111 63.8845 35.9183 63.5763 36.3936 62.9743L61.2957 31.6453C62.1257 30.6036 61.9478 29.0911 60.9053 28.2624C59.8644 27.4404 58.3468 27.6056 57.5226 28.6481Z" fill="#E6007A"/>
<path d="M67.9683 39.0918L43.0616 70.4202C42.2329 71.4621 42.4095 72.9744 43.452 73.8084C43.8962 74.1566 44.4254 74.3289 44.95 74.3289C45.6572 74.3289 46.3597 74.0155 46.8349 73.4186L71.7417 42.0902C72.5695 41.0485 72.3938 39.5355 71.3513 38.7022C70.3136 37.8779 68.7926 38.0507 67.9683 39.0918Z" fill="#E6007A"/>
</svg>
