<svg width="16" height="16" viewBox="0 0 16 16" xmlns="http://www.w3.org/2000/svg">
<path fill-rule="evenodd" clip-rule="evenodd" d="M8.66675 2.66668C8.66675 1.9303 9.2637 1.33334 10.0001 1.33334H13.3334C14.0698 1.33334 14.6667 1.9303 14.6667 2.66668V6.00001C14.6667 6.73639 14.0698 7.33334 13.3334 7.33334H10.0001C9.2637 7.33334 8.66675 6.73639 8.66675 6.00001V2.66668ZM13.3334 2.66668H10.0001V6.00001H13.3334V2.66668Z" fill='currentColor'/>
<path fill-rule="evenodd" clip-rule="evenodd" d="M1.72378 4.39052C1.97382 4.14048 2.31296 4 2.66659 4H5.99992C6.35354 4 6.69268 4.14048 6.94273 4.39052C7.19278 4.64057 7.33325 4.97971 7.33325 5.33333V8.66667H10.6666C11.0202 8.66667 11.3593 8.80714 11.6094 9.05719C11.8594 9.30724 11.9999 9.64638 11.9999 10V13.3333C11.9999 13.687 11.8594 14.0261 11.6094 14.2761C11.3593 14.5262 11.0202 14.6667 10.6666 14.6667H2.66659C2.31296 14.6667 1.97383 14.5262 1.72378 14.2761C1.47373 14.0261 1.33325 13.687 1.33325 13.3333V5.33333C1.33325 4.97971 1.47373 4.64057 1.72378 4.39052ZM2.66659 10V13.3333H5.99992V10H2.66659ZM5.99992 8.66667H2.66659V5.33333L5.99992 5.33333V8.66667ZM7.33325 10V13.3333H10.6666V10H7.33325Z" fill='currentColor'/>
</svg>
