<svg width="24" height="24" viewBox="0 0 24 24" fill="none" xmlns="http://www.w3.org/2000/svg">
<path d="M12.007 6.66342C13.9941 6.66342 15.605 5.72429 15.605 4.56584C15.605 3.40739 13.9941 2.46826 12.007 2.46826C10.02 2.46826 8.40918 3.40739 8.40918 4.56584C8.40918 5.72429 10.02 6.66342 12.007 6.66342Z" fill="currentColor"/>
<path d="M12.007 22.4683C13.9941 22.4683 15.605 21.5291 15.605 20.3707C15.605 19.2122 13.9941 18.2731 12.007 18.2731C10.02 18.2731 8.40918 19.2122 8.40918 20.3707C8.40918 21.5291 10.02 22.4683 12.007 22.4683Z" fill="currentColor"/>
<path d="M6.99313 9.56703C7.98666 7.84206 7.9802 5.97385 6.97873 5.39421C5.97727 4.81461 4.35997 5.74308 3.36643 7.46802C2.3729 9.19296 2.37936 11.0612 3.38086 11.6408C4.38233 12.2204 5.9996 11.292 6.99313 9.56703Z" fill="currentColor"/>
<path d="M20.6461 17.4685C21.6396 15.7435 21.6337 13.8756 20.6329 13.2964C19.6321 12.7172 18.0154 13.6459 17.0218 15.3709C16.0283 17.0959 16.0342 18.9638 17.035 19.543C18.0358 20.1222 19.6525 19.1934 20.6461 17.4685Z" fill="currentColor"/>
<path d="M6.97923 19.5425C7.9807 18.9629 7.98716 17.0946 6.99362 15.3697C6.00009 13.6448 4.38283 12.7163 3.38132 13.2959C2.37985 13.8755 2.37339 15.7437 3.36692 17.4687C4.36046 19.1936 5.97772 20.1221 6.97923 19.5425Z" fill="currentColor"/>
<path d="M20.6339 11.6413C21.6347 11.062 21.6406 9.1941 20.647 7.46916C19.6535 5.74422 18.0368 4.8154 17.036 5.39463C16.0352 5.97389 16.0293 7.84179 17.0228 9.56673C18.0163 11.2917 19.633 12.2205 20.6339 11.6413Z" fill="currentColor"/>
</svg>
