<svg width="24" height="24" viewBox="0 0 24 24" fill="none" xmlns="http://www.w3.org/2000/svg">
<g clip-path="url(#clip0_10118_18422)">
<path d="M20 15.9999V17.9999C20 18.4999 19.5 18.9999 19 18.9999C18.5 18.9999 18 18.4999 18 17.9999V15.9999C18 14.2999 16.8 12.9999 15.3 12.9999H5.89999L8.89999 17.4999C9.19999 17.9999 9.09999 18.5999 8.59999 18.8999C8.39999 18.9999 8.19999 18.9999 7.99999 18.9999C7.69999 18.9999 7.39999 18.7999 7.19999 18.4999L3.19999 12.4999C2.99999 12.1999 2.99999 11.6999 3.19999 11.3999L7.19999 5.39995C7.49999 4.99995 8.09999 4.89995 8.49999 5.19995C8.99999 5.49995 9.09999 6.09995 8.79999 6.49995L5.79999 10.9999H15.2C17.9 10.9999 20 13.1999 20 15.9999Z" fill="currentColor"/>
</g>
</svg>
