<svg width="24" height="24" viewBox="0 0 24 24" fill="none" xmlns="http://www.w3.org/2000/svg">
<g clip-path="url(#clip0_10118_22942)">
<path d="M20 16V18C20 18.5 19.5 19 19 19C18.5 19 18 18.5 18 18V16C18 14.3 16.8 13 15.3 13H9.89999L12.9 17.5C13.2 18 13.1 18.6 12.6 18.9C12.4 19 12.2 19 12 19C11.7 19 11.4 18.8 11.2 18.5L7.19999 12.5C6.99999 12.2 6.99999 11.7 7.19999 11.4L11.2 5.40002C11.5 4.90002 12.1 4.80002 12.6 5.10002C13.1 5.40002 13.2 6.00002 12.9 6.50002L9.89999 11H15.3C17.9 11 20 13.2 20 16ZM8.59999 18.8C9.09999 18.5 9.19999 17.9 8.89999 17.4L5.19999 12L8.79999 6.60002C9.09999 6.10002 8.99999 5.50002 8.59999 5.20002C8.09999 4.90002 7.49999 5.00002 7.19999 5.40002L3.19999 11.4C2.99999 11.7 2.99999 12.2 3.19999 12.5L7.19999 18.5C7.39999 18.8 7.69999 19 7.99999 19C8.19999 19 8.39999 18.9 8.59999 18.8Z" fill="currentColor"/>
</g>
<defs>
<clipPath id="clip0_10118_22942">
<rect width="24" height="24" fill="currentColor"/>
</clipPath>
</defs>
</svg>
