<svg width="25" height="24" viewBox="0 0 25 24" fill="none" xmlns="http://www.w3.org/2000/svg">
<path d="M22.1103 20.4118L15.9059 14.1765C16.8819 12.8908 17.4826 11.3025 17.4826 9.56303C17.4826 5.40336 14.104 2 9.97474 2C5.84544 2 2.39185 5.40336 2.39185 9.56303C2.39185 13.7227 5.77036 17.1261 9.89967 17.1261C11.6265 17.1261 13.2782 16.521 14.5545 15.4622L20.7589 21.6975C20.909 21.8487 21.2094 22 21.4346 22C21.6598 22 21.8851 21.9244 22.1103 21.6975C22.4857 21.395 22.4857 20.7899 22.1103 20.4118ZM4.2688 9.56303C4.2688 6.46218 6.82146 3.89076 9.89967 3.89076C12.9779 3.89076 15.5305 6.46218 15.5305 9.56303C15.5305 12.6639 12.9779 15.2353 9.89967 15.2353C6.82146 15.2353 4.2688 12.7395 4.2688 9.56303Z" fill="currentColor"/>
</svg>
