<svg width="17" height="16" viewBox="0 0 17 16" xmlns="http://www.w3.org/2000/svg">
<path fill-rule="evenodd" clip-rule="evenodd" d="M6.40484 1.52861C6.66518 1.78896 6.66518 2.21107 6.40484 2.47141L4.20957 4.66668L6.40484 6.86194C6.66518 7.12229 6.66518 7.5444 6.40484 7.80475C6.14449 8.0651 5.72238 8.0651 5.46203 7.80475L2.79536 5.13808C2.53501 4.87773 2.53501 4.45562 2.79536 4.19527L5.46203 1.52861C5.72238 1.26826 6.14449 1.26826 6.40484 1.52861Z" fill="currentColor"/>
<path fill-rule="evenodd" clip-rule="evenodd" d="M2.6001 4.66667C2.6001 4.29848 2.89857 4 3.26676 4H13.9334C14.3016 4 14.6001 4.29848 14.6001 4.66667C14.6001 5.03486 14.3016 5.33333 13.9334 5.33333H3.26676C2.89857 5.33333 2.6001 5.03486 2.6001 4.66667Z" fill="currentColor"/>
<path fill-rule="evenodd" clip-rule="evenodd" d="M10.7954 8.19526C11.0557 7.93491 11.4778 7.93491 11.7382 8.19526L14.4048 10.8619C14.6652 11.1223 14.6652 11.5444 14.4048 11.8047L11.7382 14.4714C11.4778 14.7318 11.0557 14.7318 10.7954 14.4714C10.535 14.2111 10.535 13.7889 10.7954 13.5286L12.9906 11.3333L10.7954 9.13807C10.535 8.87772 10.535 8.45561 10.7954 8.19526Z" fill="currentColor"/>
<path fill-rule="evenodd" clip-rule="evenodd" d="M2.6001 11.3333C2.6001 10.9651 2.89857 10.6667 3.26676 10.6667H13.9334C14.3016 10.6667 14.6001 10.9651 14.6001 11.3333C14.6001 11.7015 14.3016 12 13.9334 12H3.26676C2.89857 12 2.6001 11.7015 2.6001 11.3333Z" fill="currentColor"/>
</svg>
