<svg width="16" height="16" viewBox="0 0 16 16" fill="none" xmlns="http://www.w3.org/2000/svg">
<g clip-path="url(#clip0_9838_7641)">
<path fill-rule="evenodd" clip-rule="evenodd" d="M7.99996 2.00008C4.68625 2.00008 1.99996 4.68637 1.99996 8.00008C1.99996 11.3138 4.68625 14.0001 7.99996 14.0001C11.3137 14.0001 14 11.3138 14 8.00008C14 4.68637 11.3137 2.00008 7.99996 2.00008ZM0.666626 8.00008C0.666626 3.94999 3.94987 0.666748 7.99996 0.666748C12.05 0.666748 15.3333 3.94999 15.3333 8.00008C15.3333 12.0502 12.05 15.3334 7.99996 15.3334C3.94987 15.3334 0.666626 12.0502 0.666626 8.00008Z" fill="#FFB800"/>
<path fill-rule="evenodd" clip-rule="evenodd" d="M8.00004 3.33325C8.36823 3.33325 8.66671 3.63173 8.66671 3.99992V7.99992C8.66671 8.36811 8.36823 8.66659 8.00004 8.66659C7.63185 8.66659 7.33337 8.36811 7.33337 7.99992V3.99992C7.33337 3.63173 7.63185 3.33325 8.00004 3.33325Z" fill="#FFB800"/>
</g>
<defs>
<clipPath id="clip0_9838_7641">
<rect width="16" height="16" fill="white"/>
</clipPath>
</defs>
</svg>
