<svg width="25" height="25" viewBox="0 0 25 25" fill="none" xmlns="http://www.w3.org/2000/svg">
  <path d="M25 12C25 5.37258 19.6274 0 13 0C6.37258 0 1 5.37258 1 12C1 18.6274 6.37258 24 13 24C19.6274 24 25 18.6274 25 12Z" fill="black"/>
  <path d="M25 12.0113C25 18.645 19.6225 24.0225 12.9887 24.0225C6.355 24.0225 0.981247 18.6413 0.981247 12.0113C0.981247 5.38125 6.35875 0 12.9925 0C19.6262 0 25 5.3775 25 12.0113Z" fill="black"/>
  <path d="M13.03 6.31876C14.0117 6.31876 14.8075 5.52295 14.8075 4.54126C14.8075 3.55958 14.0117 2.76376 13.03 2.76376C12.0483 2.76376 11.2525 3.55958 11.2525 4.54126C11.2525 5.52295 12.0483 6.31876 13.03 6.31876Z" fill="white"/>
  <path d="M13.03 21.2737C14.0117 21.2737 14.8075 20.4779 14.8075 19.4963C14.8075 18.5146 14.0117 17.7188 13.03 17.7188C12.0483 17.7188 11.2525 18.5146 11.2525 19.4963C11.2525 20.4779 12.0483 21.2737 13.03 21.2737Z" fill="white"/>
  <path d="M6.47499 9.87376C7.45668 9.87376 8.25249 9.07794 8.25249 8.09626C8.25249 7.11457 7.45668 6.31876 6.47499 6.31876C5.49331 6.31876 4.69749 7.11457 4.69749 8.09626C4.69749 9.07794 5.49331 9.87376 6.47499 9.87376Z" fill="white"/>
  <path d="M19.5887 9.87376C20.5704 9.87376 21.3662 9.07794 21.3662 8.09626C21.3662 7.11457 20.5704 6.31876 19.5887 6.31876C18.6071 6.31876 17.8112 7.11457 17.8112 8.09626C17.8112 9.07794 18.6071 9.87376 19.5887 9.87376Z" fill="white"/>
  <path d="M6.47499 17.7788C7.45668 17.7788 8.25249 16.9829 8.25249 16.0013C8.25249 15.0196 7.45668 14.2238 6.47499 14.2238C5.49331 14.2238 4.69749 15.0196 4.69749 16.0013C4.69749 16.9829 5.49331 17.7788 6.47499 17.7788Z" fill="white"/>
  <path d="M19.5887 17.7788C20.5704 17.7788 21.3662 16.9829 21.3662 16.0013C21.3662 15.0196 20.5704 14.2238 19.5887 14.2238C18.6071 14.2238 17.8112 15.0196 17.8112 16.0013C17.8112 16.9829 18.6071 17.7788 19.5887 17.7788Z" fill="white"/>
  <path d="M16.945 12.5887C16.7575 12.3075 16.4763 12.09 16.105 11.9287C15.985 11.8762 15.8538 11.835 15.715 11.7975C15.745 11.7825 15.7713 11.7675 15.8013 11.7525C16.1313 11.5612 16.3713 11.325 16.5175 11.0437C16.6638 10.7625 16.7388 10.4512 16.7388 10.11C16.7388 9.73499 16.6525 9.41249 16.48 9.14249C16.3075 8.86874 16.0563 8.66249 15.7338 8.51624C15.4075 8.36999 15.0213 8.29874 14.5713 8.29874H9.02126L9.57626 11.9137L9.02126 15.7275H14.7775C15.31 15.7275 15.7563 15.6375 16.1275 15.4537C16.495 15.2737 16.7725 15.0187 16.9563 14.7C17.14 14.3775 17.2338 14.01 17.2338 13.5975C17.2263 13.2037 17.1325 12.87 16.945 12.5887ZM13.8963 10.0537C13.9863 10.0987 14.0575 10.1625 14.1025 10.2412C14.1513 10.32 14.1738 10.41 14.1738 10.515C14.1738 10.6237 14.1475 10.7212 14.095 10.8075C14.0425 10.8937 13.9713 10.9612 13.8813 11.01C13.7913 11.0587 13.69 11.0812 13.5738 11.0812H11.8375L11.6613 9.98999H13.5775C13.6975 9.98624 13.8063 10.0087 13.8963 10.0537ZM14.4775 13.8562C14.3538 13.9725 14.185 14.0287 13.9675 14.0287H11.65L11.845 12.7425H13.945C14.17 12.7425 14.3463 12.8025 14.47 12.9225C14.5975 13.0425 14.6575 13.1887 14.6575 13.3837C14.665 13.5825 14.6013 13.74 14.4775 13.8562Z" fill="white"/>
  </svg>
