<svg width="24" height="24" viewBox="0 0 24 24" fill="none" xmlns="http://www.w3.org/2000/svg">
  <path d="M24 12C24 5.37258 18.6274 0 12 0C5.37258 0 0 5.37258 0 12C0 18.6274 5.37258 24 12 24C18.6274 24 24 18.6274 24 12Z" fill="black"/>
  <path d="M16.6575 14.715H14.1225L13.6463 13.5525H10.4288L9.95254 14.715H7.41754L10.4513 7.80373H13.62L16.6575 14.715ZM12.0413 9.6L11.2013 11.6625H12.8775L12.0413 9.6Z" fill="white"/>
  <path d="M12.0375 6.33754C13.0089 6.33754 13.7963 5.55013 13.7963 4.57877C13.7963 3.60745 13.0089 2.82003 12.0375 2.82003C11.0662 2.82003 10.2788 3.60745 10.2788 4.57877C10.2788 5.55013 11.0662 6.33754 12.0375 6.33754Z" fill="white"/>
  <path d="M12.0375 21.15C13.0089 21.15 13.7963 20.3626 13.7963 19.3913C13.7963 18.42 13.0089 17.6325 12.0375 17.6325C11.0662 17.6325 10.2788 18.42 10.2788 19.3913C10.2788 20.3626 11.0662 21.15 12.0375 21.15Z" fill="white"/>
  <path d="M5.54246 9.85881C6.51377 9.85881 7.30119 9.07139 7.30119 8.10004C7.30119 7.12872 6.51377 6.34131 5.54246 6.34131C4.5711 6.34131 3.78369 7.12872 3.78369 8.10004C3.78369 9.07139 4.5711 9.85881 5.54246 9.85881Z" fill="white"/>
  <path d="M18.5362 9.85881C19.5075 9.85881 20.295 9.07139 20.295 8.10004C20.295 7.12872 19.5075 6.34131 18.5362 6.34131C17.5649 6.34131 16.7775 7.12872 16.7775 8.10004C16.7775 9.07139 17.5649 9.85881 18.5362 9.85881Z" fill="white"/>
  <path d="M5.54246 17.6888C6.51377 17.6888 7.30119 16.9014 7.30119 15.9301C7.30119 14.9587 6.51377 14.1713 5.54246 14.1713C4.5711 14.1713 3.78369 14.9587 3.78369 15.9301C3.78369 16.9014 4.5711 17.6888 5.54246 17.6888Z" fill="white"/>
  <path d="M18.5362 17.6888C19.5075 17.6888 20.295 16.9014 20.295 15.9301C20.295 14.9587 19.5075 14.1713 18.5362 14.1713C17.5649 14.1713 16.7775 14.9587 16.7775 15.9301C16.7775 16.9014 17.5649 17.6888 18.5362 17.6888Z" fill="white"/>
</svg>
