<svg xmlns="http://www.w3.org/2000/svg" width="441" height="441" viewBox="0 0 441 441">
  <g clip-path="url(#clip0_132_9347)">
  <path d="M440.5 0.5H0.5V440.5H440.5V0.5Z" fill="black" stroke="black" stroke-miterlimit="10"/>
  <path d="M373.6 127.4C368.4 123.3 362.2 117.7 350.9 116.3C340.3 114.9 329.5 122 322.2 126.7C314.9 131.4 301.1 145.2 295.4 149.4C289.7 153.6 275.1 157.5 251.6 171.6C228.1 185.7 135.9 244.9 135.9 244.9L159.9 245.2L52.9 300.3H63.5999L48.2 312C48.2 312 61.7999 315.6 73.1999 308.4V311.7C73.1999 311.7 200.6 261.5 225.2 274.5L210.2 278.9C211.5 278.9 235.7 280.5 235.7 280.5C236.287 285.511 237.972 290.331 240.633 294.618C243.295 298.904 246.869 302.551 251.1 305.3C265.7 314.9 266 320.2 266 320.2C266 320.2 258.4 323.3 258.4 327.2C258.4 327.2 269.6 323.8 280 324.1C286.6 324.35 293.147 325.391 299.5 327.2C299.5 327.2 298.7 323 288.6 320.2C278.5 317.4 268.5 306.4 263.6 300.4C260.599 296.581 258.642 292.047 257.924 287.243C257.205 282.439 257.748 277.53 259.5 273C263 263.9 275.2 258.9 300.4 245.9C330.1 230.5 336.9 219.1 341.1 210.2C345.3 201.3 351.5 183.6 355 175.3C359.4 164.6 364.8 158.9 369.3 155.5C373.8 152.1 393.8 144.6 393.8 144.6C393.8 144.6 378.5 131.3 373.6 127.4Z" fill="white"/>
  </g>
  <defs>
  <clipPath id="clip0_132_9347">
  <rect width="441" height="441" rx="220.5" fill="white"/>
  </clipPath>
  </defs>
  </svg>
