<svg width="28" height="28" viewBox="0 0 28 28" fill="none" xmlns="http://www.w3.org/2000/svg">
  <path d="M28 14C28 6.26801 21.732 0 14 0C6.26801 0 0 6.26801 0 14C0 21.732 6.26801 28 14 28C21.732 28 28 21.732 28 14Z" fill="#E6007A"/>
  <path d="M17.3355 6.66875C17.3355 7.74192 15.8432 8.61192 14.0024 8.61192C12.1617 8.61192 10.6694 7.74192 10.6694 6.66875C10.6694 5.59558 12.1617 4.72559 14.0024 4.72559C15.8432 4.72559 17.3355 5.59558 17.3355 6.66875Z" fill="white"/>
  <path d="M17.3355 21.3093C17.3355 22.3825 15.8432 23.2525 14.0024 23.2525C12.1617 23.2525 10.6694 22.3825 10.6694 21.3093C10.6694 20.2361 12.1617 19.3662 14.0024 19.3662C15.8432 19.3662 17.3355 20.2361 17.3355 21.3093Z" fill="white"/>
  <path d="M9.35764 11.3009C10.278 9.70284 10.2721 7.97216 9.34431 7.43519C8.41656 6.89826 6.91832 7.75838 5.99792 9.35634C5.07753 10.9543 5.08351 12.6851 6.01129 13.222C6.93904 13.759 8.43725 12.8988 9.35764 11.3009Z" fill="white"/>
  <path d="M21.9934 14.7563C22.9205 15.2929 22.926 17.0233 22.0056 18.6213C21.0852 20.2193 19.5875 21.0797 18.6604 20.5431C17.7332 20.0065 17.7278 18.2761 18.6482 16.6781C19.5686 15.0802 21.0663 14.2197 21.9934 14.7563Z" fill="white"/>
  <path d="M9.3448 20.5423C10.2725 20.0053 10.2785 18.2746 9.35814 16.6767C8.43774 15.0787 6.93953 14.2186 6.01175 14.7555C5.08401 15.2925 5.07802 17.0232 5.99842 18.6211C6.91881 20.2191 8.41702 21.0792 9.3448 20.5423Z" fill="white"/>
  <path d="M22.0063 9.35778C22.9267 10.9557 22.9212 12.6862 21.9941 13.2228C21.067 13.7593 19.5693 12.8989 18.6489 11.3009C17.7285 9.70298 17.734 7.97258 18.6611 7.43596C19.5882 6.89938 21.086 7.75982 22.0063 9.35778Z" fill="white"/>
</svg>
