<svg width="24" height="24" viewBox="0 0 24 24" fill="none" xmlns="http://www.w3.org/2000/svg">
  <circle cx="12" cy="12" r="12" fill="url(#svg-rococo-gradient)"/>
  <path d="M7.0896 7.32439V8.04919C7.18848 7.82198 7.35476 7.63061 7.56594 7.50098C7.77713 7.37135 8.02303 7.30971 8.2704 7.32439H8.9232V8.24119H8.1072C7.3824 8.24119 7.104 8.58199 7.104 9.41719V10.742H8.64V11.6012H4.896V10.742H5.9616V8.19319H4.896V7.32439H7.0896Z" fill="white"/>
  <path d="M12 11.707C10.9488 11.707 9.9552 11.1022 9.9552 9.4654C9.9552 7.8286 10.9488 7.2334 12 7.2334C13.0512 7.2334 14.04 7.8286 14.04 9.4654C14.04 11.1022 13.0416 11.707 12 11.707ZM12 8.0734C11.4528 8.0734 11.1024 8.4814 11.1024 9.4654C11.1024 10.4494 11.4528 10.8622 12 10.8622C12.5472 10.8622 12.8976 10.4494 12.8976 9.4654C12.8976 8.4814 12.5472 8.0734 12 8.0734Z" fill="white"/>
  <path d="M19.0176 8.87056H17.9376C17.8704 8.41456 17.6592 8.07376 17.1504 8.07376C16.6416 8.07376 16.32 8.51056 16.32 9.47056C16.32 10.4306 16.6368 10.8626 17.1456 10.8626C17.496 10.8626 17.8512 10.6898 17.9568 10.037H19.056C19.0087 10.5075 18.7837 10.9422 18.427 11.2526C18.0702 11.563 17.6085 11.7256 17.136 11.7074C15.888 11.7074 15.1824 10.7474 15.1824 9.47056C15.1824 8.19376 15.9072 7.23376 17.16 7.23376C17.6206 7.21597 18.0703 7.376 18.4161 7.6807C18.7619 7.9854 18.9773 8.41143 19.0176 8.87056Z" fill="white"/>
  <path d="M6.86401 17.5205C5.81761 17.5205 4.82401 16.9157 4.82401 15.2789C4.82401 13.6421 5.81761 13.0469 6.86401 13.0469C7.91041 13.0469 8.9088 13.6421 8.9088 15.2789C8.9088 16.9157 7.90561 17.5205 6.86401 17.5205ZM6.86401 13.8869C6.31681 13.8869 5.96641 14.2949 5.96641 15.2789C5.96641 16.2629 6.31681 16.6757 6.86401 16.6757C7.41121 16.6757 7.76641 16.2629 7.76641 15.2789C7.76641 14.2949 7.41601 13.8869 6.86401 13.8869Z" fill="white"/>
  <path d="M13.8816 14.6834H12.8016C12.7392 14.2274 12.5232 13.8866 12.0144 13.8866C11.5056 13.8866 11.1888 14.3234 11.1888 15.2882C11.1888 16.253 11.52 16.6754 12 16.6754C12.3504 16.6754 12.7104 16.5026 12.8112 15.8498H13.92C13.8716 16.3199 13.6463 16.754 13.2898 17.0641C12.9333 17.3743 12.4722 17.5373 12 17.5202C10.752 17.5202 10.0464 16.5602 10.0464 15.2882C10.0464 14.0162 10.7664 13.0466 12.024 13.0466C12.4851 13.0264 12.9362 13.1856 13.2825 13.4908C13.6289 13.796 13.8436 14.2234 13.8816 14.6834Z" fill="white"/>
  <path d="M17.1312 17.5205C16.0848 17.5205 15.0912 16.9157 15.0912 15.2789C15.0912 13.6421 16.0848 13.0469 17.1312 13.0469C18.1776 13.0469 19.2 13.6421 19.2 15.2789C19.2 16.9157 18.1728 17.5205 17.1312 17.5205ZM17.1312 13.8869C16.584 13.8869 16.2336 14.2949 16.2336 15.2789C16.2336 16.2629 16.584 16.6757 17.1312 16.6757C17.6784 16.6757 18.0336 16.2629 18.0336 15.2789C18.0336 14.2949 17.6832 13.8869 17.1312 13.8869Z" fill="white"/>
  <defs>
    <linearGradient id="svg-rococo-gradient" x1="5.5" y1="1" x2="20.5" y2="21" gradientUnits="userSpaceOnUse">
      <stop stop-color="#E6007A"/>
      <stop offset="0.589003" stop-color="#552BBF"/>
      <stop offset="1" stop-color="#00B2FF"/>
    </linearGradient>
  </defs>
</svg>
