<svg width="128" height="39" viewBox="0 0 128 39" fill="none" xmlns="http://www.w3.org/2000/svg">
<g clip-path="url(#clip0_45_152)">
<path d="M6.87618 23.1568C7.35952 22.2202 8.01763 21.4993 8.85596 20.9941C9.69156 20.4889 10.6227 20.2377 11.6468 20.2377C12.425 20.2377 13.1678 20.407 13.875 20.7456C14.5823 21.0842 15.1448 21.5348 15.5626 22.0973V16.4092H18.6347V32.4167H15.5626V30.6417C15.1885 31.2343 14.6615 31.7094 13.9843 32.0699C13.307 32.4303 12.5206 32.6106 11.6276 32.6106C10.6173 32.6106 9.69429 32.3512 8.85869 31.8323C8.02309 31.3135 7.36225 30.5816 6.87892 29.6368C6.39558 28.692 6.15527 27.6079 6.15527 26.3818C6.15527 25.1557 6.39558 24.0962 6.87892 23.1595L6.87618 23.1568ZM15.153 24.5304C14.8636 24.0033 14.4758 23.5992 13.9843 23.3179C13.4927 23.0366 12.9684 22.8974 12.4059 22.8974C11.8434 22.8974 11.3245 23.0339 10.8494 23.3097C10.3742 23.5828 9.98648 23.9842 9.69156 24.5112C9.39664 25.0383 9.24918 25.6609 9.24918 26.3818C9.24918 27.1027 9.39664 27.7335 9.69156 28.2742C9.98648 28.8149 10.377 29.2299 10.8603 29.5194C11.3437 29.8088 11.8598 29.9508 12.4059 29.9508C12.952 29.9508 13.4955 29.8088 13.9843 29.5303C14.4731 29.249 14.8636 28.8449 15.153 28.3179C15.4425 27.7908 15.5845 27.16 15.5845 26.4255C15.5845 25.6909 15.4397 25.0601 15.153 24.5331V24.5304Z" fill="currentColor"/>
<path d="M31.8513 27.3319H23.0911C23.1621 28.1976 23.4652 28.8748 24.0004 29.3663C24.5329 29.8578 25.191 30.1009 25.9693 30.1009C27.0944 30.1009 27.8945 29.6175 28.3696 28.6509H31.6355C31.2887 29.806 30.6252 30.7535 29.6448 31.4963C28.6645 32.239 27.4603 32.6104 26.0321 32.6104C24.877 32.6104 23.8448 32.3537 22.9273 31.8431C22.0125 31.3324 21.297 30.6061 20.7864 29.6694C20.273 28.7328 20.019 27.6514 20.019 26.4253C20.019 25.1992 20.2703 24.096 20.7755 23.1594C21.2806 22.2227 21.9879 21.5018 22.8945 20.9966C23.8038 20.4915 24.8497 20.2402 26.0321 20.2402C27.2145 20.2402 28.1921 20.486 29.0932 20.9748C29.9944 21.4663 30.6934 22.1599 31.1904 23.0611C31.6874 23.9622 31.9359 24.9972 31.9359 26.1659C31.9359 26.5974 31.9059 26.9879 31.8485 27.3347L31.8513 27.3319ZM28.8011 25.2975C28.7874 24.5193 28.5061 23.8939 27.9573 23.427C27.4084 22.9573 26.7394 22.7252 25.9447 22.7252C25.1938 22.7252 24.563 22.9518 24.0523 23.4079C23.5389 23.8612 23.2276 24.492 23.1102 25.3003H28.7983L28.8011 25.2975Z" fill="currentColor"/>
<path d="M38.282 29.626L41.3104 20.4316H44.5327L40.098 32.4168H36.4197L32.0068 20.4316H35.2509L38.2793 29.626H38.282Z" fill="currentColor"/>
<path d="M56.1958 21.8597C55.849 21.2262 55.3739 20.7428 54.7676 20.4097C54.1614 20.0792 53.4542 19.9127 52.6486 19.9127C51.7529 19.9127 50.961 20.1147 50.2701 20.5189C49.5793 20.923 49.0358 21.4992 48.6481 22.2502C48.2576 23.0011 48.0637 23.8668 48.0637 24.8471C48.0637 25.8274 48.2631 26.7368 48.659 27.485C49.055 28.2359 49.6066 28.8121 50.3138 29.2163C51.0211 29.6204 51.843 29.8225 52.7797 29.8225C53.932 29.8225 54.8769 29.5166 55.6142 28.9022C56.3487 28.2905 56.8321 27.4358 57.0642 26.3381H51.8731V24.0224H60.0489V26.6603C59.8468 27.7144 59.4153 28.6865 58.7518 29.5794C58.0882 30.4751 57.2335 31.1906 56.1876 31.7313C55.1417 32.2719 53.9703 32.5423 52.6732 32.5423C51.2177 32.5423 49.9015 32.2146 48.7245 31.5592C47.5503 30.9038 46.6273 29.9918 45.9556 28.823C45.2838 27.6543 44.9507 26.3271 44.9507 24.8416C44.9507 23.3561 45.2866 22.0263 45.9556 20.8493C46.6273 19.6751 47.5476 18.7576 48.7245 18.1022C49.8988 17.4468 51.2095 17.1191 52.6513 17.1191C54.3526 17.1191 55.8326 17.5342 57.086 18.3644C58.3394 19.1945 59.2051 20.3578 59.6829 21.8569H56.2013L56.1958 21.8597Z" fill="currentColor"/>
<path d="M66.201 20.7975C66.8291 20.4371 67.5446 20.2568 68.3529 20.2568V23.4354H67.5528C66.5997 23.4354 65.8843 23.6593 65.4009 24.1072C64.9176 24.555 64.6773 25.3333 64.6773 26.4447V32.414H61.6489V20.4289H64.6773V22.2885C65.0678 21.655 65.5757 21.1552 66.201 20.7948V20.7975Z" fill="currentColor"/>
<path d="M72.061 31.8431C71.138 31.3324 70.4144 30.6061 69.8873 29.6694C69.3603 28.7328 69.0981 27.6514 69.0981 26.4253C69.0981 25.1992 69.3685 24.1179 69.9092 23.1812C70.4499 22.2446 71.1899 21.5182 72.1265 21.0076C73.0632 20.4969 74.109 20.2402 75.2641 20.2402C76.4192 20.2402 77.4624 20.4969 78.4017 21.0076C79.3384 21.5209 80.0784 22.2446 80.6191 23.1812C81.1598 24.1179 81.4301 25.1992 81.4301 26.4253C81.4301 27.6514 81.1516 28.7328 80.5972 29.6694C80.0429 30.6061 79.2919 31.3324 78.3471 31.8431C77.4023 32.3565 76.3455 32.6104 75.1767 32.6104C74.008 32.6104 72.984 32.3537 72.061 31.8431ZM76.7223 29.5711C77.2057 29.3035 77.5907 28.9048 77.8802 28.3696C78.1696 27.8371 78.3116 27.1872 78.3116 26.4226C78.3116 25.2839 78.0112 24.4073 77.4132 23.7929C76.8152 23.1812 76.0833 22.8727 75.2177 22.8727C74.3521 22.8727 73.6284 23.1785 73.044 23.7929C72.4597 24.4073 72.1675 25.2812 72.1675 26.4226C72.1675 27.564 72.4515 28.4379 73.0222 29.0496C73.5929 29.664 74.3084 29.9698 75.174 29.9698C75.7229 29.9698 76.2363 29.836 76.7196 29.5684L76.7223 29.5711Z" fill="currentColor"/>
<path d="M94.5266 20.4314V32.4166H91.4764V30.901C91.0859 31.4199 90.578 31.8268 89.9527 32.1244C89.3246 32.4193 88.6447 32.5668 87.9074 32.5668C86.9707 32.5668 86.1406 32.3674 85.4197 31.9715C84.6988 31.5755 84.1335 30.9912 83.7212 30.2184C83.3088 29.4483 83.104 28.528 83.104 27.4603V20.4287H86.1324V27.0261C86.1324 27.9792 86.37 28.711 86.8451 29.2216C87.3202 29.735 87.9702 29.989 88.7921 29.989C89.6141 29.989 90.2858 29.7323 90.761 29.2216C91.2361 28.711 91.4737 27.9764 91.4737 27.0261V20.4287H94.5239L94.5266 20.4314Z" fill="currentColor"/>
<path d="M106.725 21.6105C107.604 22.5116 108.044 23.7705 108.044 25.3844V32.416H105.016V25.7967C105.016 24.8437 104.778 24.1118 104.303 23.6012C103.828 23.0906 103.178 22.8339 102.356 22.8339C101.534 22.8339 100.859 23.0906 100.376 23.6012C99.8927 24.1146 99.6524 24.8464 99.6524 25.7967V32.416H96.624V20.4308H99.6524V21.9245C100.057 21.4057 100.573 20.9988 101.198 20.7012C101.826 20.4062 102.514 20.2588 103.265 20.2588C104.693 20.2588 105.846 20.7094 106.725 21.6105Z" fill="currentColor"/>
<path d="M110.089 23.1568C110.572 22.2202 111.231 21.4993 112.069 20.9941C112.904 20.4889 113.836 20.2377 114.86 20.2377C115.638 20.2377 116.381 20.407 117.088 20.7456C117.795 21.0842 118.358 21.5348 118.776 22.0973V16.4092H121.848V32.4167H118.776V30.6417C118.401 31.2343 117.874 31.7094 117.197 32.0699C116.52 32.4303 115.733 32.6106 114.841 32.6106C113.83 32.6106 112.907 32.3512 112.072 31.8323C111.236 31.3135 110.575 30.5816 110.092 29.6368C109.608 28.692 109.368 27.6079 109.368 26.3818C109.368 25.1557 109.608 24.0962 110.092 23.1595L110.089 23.1568ZM118.363 24.5304C118.074 24.0033 117.686 23.5992 117.194 23.3179C116.703 23.0366 116.179 22.8974 115.616 22.8974C115.054 22.8974 114.535 23.0339 114.06 23.3097C113.584 23.5828 113.197 23.9842 112.902 24.5112C112.607 25.0383 112.459 25.6609 112.459 26.3818C112.459 27.1027 112.607 27.7335 112.902 28.2742C113.197 28.8149 113.587 29.2299 114.07 29.5194C114.554 29.8088 115.07 29.9508 115.616 29.9508C116.162 29.9508 116.706 29.8088 117.194 29.5303C117.683 29.249 118.074 28.8449 118.363 28.3179C118.653 27.7908 118.795 27.16 118.795 26.4255C118.795 25.6909 118.65 25.0601 118.363 24.5331V24.5304Z" fill="currentColor"/>
<path d="M50.8217 0H13.9624V10.2539H50.8217V0Z" fill="#E6007A"/>
<path d="M19.0716 1.91406C18.58 1.91406 18.1049 1.97687 17.911 2.02875C17.6297 2.10794 17.5587 2.23083 17.5069 2.48478L16.39 7.63493C16.3736 7.74143 16.3545 7.82881 16.3545 7.9162C16.3545 8.17015 16.5211 8.33946 16.7941 8.33946C17.0918 8.33946 17.2174 8.14558 17.2775 7.84793L17.5942 6.3788C17.8127 6.4061 18.1049 6.43068 18.5172 6.43068C20.3359 6.43068 21.4719 5.44489 21.4719 3.96211C21.4719 2.66228 20.5653 1.91406 19.0716 1.91406ZM18.4735 5.58962C18.1923 5.58962 17.9738 5.58143 17.769 5.55412L18.3588 2.82066C18.5445 2.79336 18.8149 2.75786 19.0961 2.75786C20.0628 2.75786 20.5543 3.21389 20.5543 3.9703C20.5543 4.93697 19.8498 5.58689 18.4708 5.58689L18.4735 5.58962Z" fill="#FBFCFE"/>
<path d="M47.706 6.64365C47.5558 6.64365 47.4602 6.73103 47.2745 6.93311C46.9496 7.26626 46.7475 7.45195 46.4935 7.45195C46.2642 7.45195 46.1413 7.26626 46.1413 6.96861C46.1413 6.80203 46.1768 6.59996 46.2205 6.37877L46.5454 4.84956H47.5203C47.8289 4.84956 48.0118 4.6748 48.0118 4.35803C48.0118 4.18327 47.8971 4.04946 47.635 4.04946H46.7202L46.8786 3.33674C46.895 3.23024 46.9141 3.13467 46.9141 3.04729C46.9141 2.80152 46.7475 2.62402 46.4744 2.62402C46.185 2.62402 46.0512 2.8179 45.9911 3.11555L45.789 4.04673H45.3767C45.0599 4.04673 44.877 4.2215 44.877 4.53826C44.877 4.71303 44.9998 4.84683 45.2647 4.84683H45.6252L45.3002 6.35966C45.2647 6.52623 45.221 6.7993 45.221 7.08057C45.221 7.79329 45.5897 8.31212 46.3816 8.31212C46.8376 8.31212 47.2418 8.08274 47.5503 7.8124C47.848 7.54752 48.0692 7.22256 48.0692 7.0123C48.0692 6.81022 47.9108 6.64365 47.7087 6.64365H47.706Z" fill="#FBFCFE"/>
<path d="M27.4901 2.43303C27.4901 2.17907 27.3153 2.00977 27.0423 2.00977C26.7528 2.00977 26.619 2.20365 26.5589 2.5013L25.4612 7.60775C25.4339 7.71425 25.4175 7.80163 25.4175 7.88902C25.4175 8.14297 25.5922 8.31228 25.8571 8.31228C26.1548 8.31228 26.2886 8.1184 26.3487 7.82075L27.4464 2.71429C27.4628 2.60779 27.4901 2.52041 27.4901 2.43303Z" fill="#FBFCFE"/>
<path d="M43.1812 3.96243C41.7749 3.96243 40.8164 5.36056 40.8164 6.6877C40.8164 6.71227 40.8164 6.73685 40.8164 6.76143C40.5952 7.0973 40.3139 7.44411 40.12 7.44411C39.9808 7.44411 39.9262 7.31303 39.9262 7.11096C39.9262 6.86519 39.9972 6.45285 40.0764 6.0924L40.8055 2.71722C40.8218 2.61072 40.841 2.52334 40.841 2.43596C40.841 2.182 40.6744 2.0127 40.4013 2.0127C40.1037 2.0127 39.9781 2.20658 39.918 2.50423L39.522 4.33381C39.3118 4.11535 39.0032 3.96516 38.5362 3.96516C37.6023 3.96516 36.663 4.68334 36.297 5.78656C35.8929 6.82969 35.5324 7.44684 35.2484 7.44684C35.1419 7.44684 35.0819 7.35945 35.0819 7.20926C35.0819 6.76962 35.3276 5.69644 35.4341 5.17761C35.4696 4.98372 35.486 4.90453 35.486 4.78984C35.486 4.40208 34.8443 3.94605 34.0087 3.94605C33.042 3.94605 32.1682 4.55773 31.7313 5.46706C31.0786 6.6167 30.4833 7.44411 30.1857 7.44411C30.0546 7.44411 30.0109 7.27753 29.9754 7.11915L29.7569 5.90671L31.1005 4.80896C31.2233 4.70246 31.3817 4.555 31.3817 4.36112C31.3817 4.12355 31.2233 3.96516 30.9858 3.96516C30.811 3.96516 30.6608 4.07166 30.5106 4.19454L28.4899 5.86575L29.1671 2.71995C29.1835 2.61345 29.2108 2.52607 29.2108 2.43869C29.2108 2.18473 29.036 2.01543 28.763 2.01543C28.4735 2.01543 28.3424 2.20931 28.2796 2.50696L27.1819 7.61341C27.1546 7.71991 27.1382 7.80729 27.1382 7.89468C27.1382 8.14863 27.313 8.31794 27.5778 8.31794C27.8755 8.31794 28.0093 8.12406 28.0694 7.82641L28.2086 7.1683L29.036 6.49928L29.2381 7.51784C29.3173 7.92198 29.5276 8.31794 30.0737 8.31794C30.6171 8.31794 31.0431 7.82368 31.4691 7.15465C31.5975 7.85645 32.0972 8.31794 32.7881 8.31794C33.4817 8.31794 33.9568 7.9056 34.2654 7.35126V7.36765C34.2654 7.93837 34.5548 8.31794 35.0655 8.31794C35.527 8.31794 35.9093 8.0394 36.2506 7.44957C36.4445 7.96568 36.8787 8.31794 37.4822 8.31794C38.1949 8.31794 38.7028 7.88648 39.0305 7.28846V7.34034C39.0305 7.97387 39.3473 8.31521 39.8661 8.31521C40.3249 8.31521 40.7126 8.05033 41.0458 7.61614C41.2997 8.0476 41.7503 8.31521 42.362 8.31521C43.7683 8.31521 44.7268 6.91708 44.7268 5.58175C44.7268 4.64238 44.1561 3.96516 43.1785 3.96516L43.1812 3.96243ZM34.4183 5.74833C34.1643 6.84608 33.6182 7.47141 33.0038 7.47141C32.5914 7.47141 32.3621 7.15465 32.3621 6.6795C32.3621 5.74833 33.0393 4.74615 33.9432 4.74615C34.2162 4.74615 34.4265 4.82534 34.6122 4.94003L34.4183 5.74833ZM39.3145 5.28137C39.0332 6.57301 38.3915 7.46868 37.6897 7.46868C37.3019 7.46868 37.0753 7.17103 37.0753 6.67677C37.0753 5.7374 37.7252 4.7598 38.5963 4.7598C38.9295 4.7598 39.1861 4.87449 39.3691 5.02468L39.3172 5.27864L39.3145 5.28137ZM42.4685 7.46868C41.9578 7.46868 41.7476 7.10004 41.7476 6.63308C41.7476 5.7811 42.3374 4.8035 43.0747 4.8035C43.5853 4.8035 43.7956 5.17214 43.7956 5.6391C43.7956 6.49928 43.2058 7.46868 42.4685 7.46868Z" fill="#FBFCFE"/>
<path d="M23.6592 3.96191C22.2529 3.96191 21.2944 5.36005 21.2944 6.68718C21.2944 7.63747 21.8652 8.31196 22.8428 8.31196C24.2491 8.31196 25.2076 6.91383 25.2076 5.5785C25.2076 4.63913 24.6368 3.96191 23.6592 3.96191ZM22.9465 7.46817C22.4359 7.46817 22.2256 7.09952 22.2256 6.63256C22.2256 5.78058 22.8154 4.80298 23.5527 4.80298C24.0634 4.80298 24.2737 5.17163 24.2737 5.63858C24.2737 6.49876 23.6838 7.46817 22.9465 7.46817Z" fill="#FBFCFE"/>
<path d="M10.3331 13.3314V10.2539H0V38.5688H10.3331V35.4913H3.07753V13.3314H10.3331ZM117.667 35.4913V38.5688H128V10.2539H117.667V13.3314H124.922V35.4913H117.667Z" fill="#E6007A"/>
</g>
<defs>
<clipPath id="clip0_45_152">
<rect width="128" height="39" fill="currentColor"/>
</clipPath>
</defs>
</svg>
