<svg width="24" height="24" viewBox="0 0 24 24" fill="none" xmlns="http://www.w3.org/2000/svg">
<path d="M12.0061 6.66342C13.9931 6.66342 15.604 5.72429 15.604 4.56584C15.604 3.40739 13.9931 2.46826 12.0061 2.46826C10.019 2.46826 8.4082 3.40739 8.4082 4.56584C8.4082 5.72429 10.019 6.66342 12.0061 6.66342Z" fill="#E6007A"/>
<path d="M12.0061 22.4683C13.9931 22.4683 15.604 21.5292 15.604 20.3708C15.604 19.2123 13.9931 18.2732 12.0061 18.2732C10.019 18.2732 8.4082 19.2123 8.4082 20.3708C8.4082 21.5292 10.019 22.4683 12.0061 22.4683Z" fill="#E6007A"/>
<path d="M6.99264 9.567C7.98617 7.84202 7.97971 5.97382 6.97825 5.39418C5.97678 4.81458 4.35948 5.74305 3.36594 7.46799C2.37241 9.19293 2.37887 11.0612 3.38038 11.6408C4.38184 12.2204 5.99911 11.2919 6.99264 9.567Z" fill="#E6007A"/>
<path d="M20.6458 17.4686C21.6394 15.7437 21.6335 13.8758 20.6326 13.2965C19.6319 12.7173 18.0151 13.6461 17.0216 15.371C16.028 17.096 16.0339 18.9639 17.0348 19.5431C18.0356 20.1224 19.6523 19.1936 20.6458 17.4686Z" fill="#E6007A"/>
<path d="M6.97825 19.5426C7.97972 18.963 7.98618 17.0948 6.99265 15.3698C5.99911 13.6449 4.38185 12.7164 3.38034 13.296C2.37888 13.8757 2.37241 15.7439 3.36595 17.4689C4.35948 19.1938 5.97675 20.1223 6.97825 19.5426Z" fill="#E6007A"/>
<path d="M20.6326 11.6411C21.6334 11.0619 21.6394 9.19392 20.6458 7.46897C19.6523 5.74403 18.0356 4.81522 17.0347 5.39444C16.0339 5.97371 16.0281 7.84161 17.0216 9.56655C18.0151 11.2915 19.6318 12.2203 20.6326 11.6411Z" fill="#E6007A"/>
</svg>
